<svg data-v-423bf9ae="" xmlns="http://www.w3.org/2000/svg" viewBox="0 0 886 112" class="iconLeft"><!----><!----><!----><g data-v-423bf9ae="" id="039217bd-8b56-4866-a4d3-bdb51f1c7985" fill="black" transform="matrix(5.0547595415229125,0,0,5.0547595415229125,124.43839473416153,-6.845436333775467)"><path d="M1.32 8.37L2.62 7.87L2.62 11.52L2.62 11.52Q2.91 10.36 3.43 9.54L3.43 9.54L3.43 9.54Q3.95 8.72 4.55 8.31L4.55 8.31L4.55 8.31Q5.15 7.90 5.67 7.90L5.67 7.90L5.67 7.90Q6.20 7.90 6.47 8.26L6.47 8.26L6.47 8.26Q6.73 8.62 6.73 9.23L6.73 9.23L6.73 11.51L6.73 11.51Q7.03 10.35 7.55 9.53L7.55 9.53L7.55 9.53Q8.06 8.72 8.66 8.31L8.66 8.31L8.66 8.31Q9.25 7.90 9.79 7.90L9.79 7.90L9.79 7.90Q10.32 7.90 10.58 8.25L10.58 8.25L10.58 8.25Q10.85 8.61 10.85 9.23L10.85 9.23L10.85 16.59L10.85 16.59Q10.85 16.98 11.02 17.22L11.02 17.22L11.02 17.22Q11.19 17.46 11.48 17.46L11.48 17.46L11.48 17.46Q11.70 17.46 11.94 17.31L11.94 17.31L11.94 17.31Q12.17 17.16 12.32 16.95L12.32 16.95L12.52 17.14L12.52 17.14Q12.32 17.57 11.92 17.86L11.92 17.86L11.92 17.86Q11.52 18.16 10.98 18.16L10.98 18.16L10.98 18.16Q10.35 18.16 9.95 17.72L9.95 17.72L9.95 17.72Q9.56 17.28 9.56 16.44L9.56 16.44L9.56 9.59L9.56 9.59Q9.56 9.27 9.44 9.09L9.44 9.09L9.44 9.09Q9.31 8.92 9.10 8.92L9.10 8.92L9.10 8.92Q8.67 8.92 8.10 9.59L8.10 9.59L8.10 9.59Q7.53 10.26 7.13 11.44L7.13 11.44L7.13 11.44Q6.72 12.61 6.72 14.06L6.72 14.06L6.72 17.82L5.43 18.28L5.43 9.59L5.43 9.59Q5.43 9.27 5.32 9.09L5.32 9.09L5.32 9.09Q5.21 8.92 5.01 8.92L5.01 8.92L5.01 8.92Q4.58 8.92 4.00 9.59L4.00 9.59L4.00 9.59Q3.43 10.26 3.02 11.44L3.02 11.44L3.02 11.44Q2.62 12.61 2.62 14.06L2.62 14.06L2.62 17.82L1.32 18.28L1.32 8.37ZM16.79 11.09L16.79 11.09Q17.47 11.09 18.08 11.38L18.08 11.38L18.08 11.38Q18.69 11.68 18.97 12.28L18.97 12.28L17.96 12.82L17.96 12.82Q17.74 12.50 17.35 12.24L17.35 12.24L17.35 12.24Q16.95 11.98 16.51 11.98L16.51 11.98L16.51 11.98Q15.79 11.98 15.26 12.36L15.26 12.36L15.26 12.36Q14.73 12.73 14.45 13.36L14.45 13.36L14.45 13.36Q14.17 13.99 14.17 14.76L14.17 14.76L14.17 14.76Q14.17 15.86 14.55 16.55L14.55 16.55L14.55 16.55Q14.92 17.25 15.74 17.25L15.74 17.25L15.74 17.25Q16.88 17.25 17.32 16.32L17.32 16.32L17.32 16.32Q17.75 15.40 17.75 14.31L17.75 14.31L17.75 13.68L18.98 13.16L18.98 16.84L18.98 16.84Q18.98 17.02 19.08 17.19L19.08 17.19L19.08 17.19Q19.18 17.36 19.38 17.36L19.38 17.36L19.38 17.36Q19.78 17.36 20.12 16.80L20.12 16.80L20.33 17.02L20.33 17.02Q20.16 17.50 19.74 17.83L19.74 17.83L19.74 17.83Q19.32 18.16 18.90 18.16L18.90 18.16L18.90 18.16Q18.30 18.16 18.01 17.71L18.01 17.71L18.01 17.71Q17.72 17.26 17.72 16.52L17.72 16.52L17.70 16.52L17.70 16.52Q17.35 17.26 16.75 17.76L16.75 17.76L16.75 17.76Q16.16 18.26 15.50 18.26L15.50 18.26L15.50 18.26Q14.31 18.26 13.70 17.44L13.70 17.44L13.70 17.44Q13.09 16.62 13.09 15.25L13.09 15.25L13.09 15.25Q13.09 14.15 13.58 13.20L13.58 13.20L13.58 13.20Q14.07 12.24 14.92 11.66L14.92 11.66L14.92 11.66Q15.76 11.09 16.79 11.09L16.79 11.09ZM26.52 10.96L26.52 10.96Q27.08 10.96 27.24 11.38L27.24 11.38L27.24 11.38Q27.41 11.79 27.41 12.52L27.41 12.52L27.41 12.95L27.41 16.91L27.41 16.91Q27.41 17.07 27.51 17.23L27.51 17.23L27.51 17.23Q27.61 17.39 27.79 17.39L27.79 17.39L27.79 17.39Q28.03 17.39 28.20 17.23L28.20 17.23L28.20 17.23Q28.36 17.08 28.53 16.84L28.53 16.84L28.74 17.05L28.74 17.05Q28.53 17.50 28.11 17.83L28.11 17.83L28.11 17.83Q27.69 18.16 27.31 18.16L27.31 18.16L27.31 18.16Q26.75 18.16 26.45 17.81L26.45 17.81L26.45 17.81Q26.14 17.46 26.14 16.74L26.14 16.74L26.14 13.03L26.14 13.03Q26.14 12.82 26.10 12.68L26.10 12.68L26.10 12.68Q26.05 12.54 25.89 12.54L25.89 12.54L25.89 12.54Q25.31 12.54 24.71 13.65L24.71 13.65L24.71 13.65Q24.11 14.76 23.68 16.12L23.68 16.12L23.68 16.12Q23.25 17.49 23.25 17.92L23.25 17.92L22.04 18.28L22.04 12.29L22.04 12.29Q22.04 12.10 21.93 11.94L21.93 11.94L21.93 11.94Q21.83 11.77 21.63 11.77L21.63 11.77L21.63 11.77Q21.29 11.77 20.90 12.38L20.90 12.38L20.69 12.15L20.69 12.15Q20.87 11.65 21.29 11.30L21.29 11.30L21.29 11.30Q21.71 10.96 22.13 10.96L22.13 10.96L22.13 10.96Q22.72 10.96 23.01 11.24L23.01 11.24L23.01 11.24Q23.30 11.52 23.30 12.01L23.30 12.01L23.30 15.69L23.35 15.69L23.35 15.69Q23.73 14.45 24.08 13.52L24.08 13.52L24.08 13.52Q24.43 12.60 25.06 11.78L25.06 11.78L25.06 11.78Q25.69 10.96 26.52 10.96L26.52 10.96ZM32.86 10.96L33.11 11.26L33.11 11.26Q32.06 11.93 31.46 12.75L31.46 12.75L31.46 12.75Q30.86 13.58 30.86 14.70L30.86 14.70L30.86 14.70Q30.86 15.33 31.12 15.97L31.12 15.97L31.12 15.97Q31.39 16.60 31.92 17.02L31.92 17.02L31.92 17.02Q32.45 17.44 33.19 17.44L33.19 17.44L33.19 17.44Q33.80 17.44 34.27 17.16L34.27 17.16L34.27 17.16Q34.73 16.88 34.99 16.41L34.99 16.41L34.99 16.41Q35.25 15.93 35.25 15.36L35.25 15.36L35.25 15.36Q35.25 14.70 34.85 14.01L34.85 14.01L34.85 14.01Q34.45 13.33 33.81 12.85L33.81 12.85L33.81 12.85Q33.17 12.38 32.49 12.32L32.49 12.32L32.49 12.32Q32.77 12.04 33.17 11.73L33.17 11.73L33.17 11.73Q33.56 11.42 33.96 11.13L33.96 11.13L33.96 11.13Q34.93 11.45 35.49 12.36L35.49 12.36L35.49 12.36Q36.05 13.26 36.05 14.36L36.05 14.36L36.05 14.36Q36.05 15.34 35.65 16.25L35.65 16.25L35.65 16.25Q35.25 17.15 34.48 17.72L34.48 17.72L34.48 17.72Q33.71 18.28 32.66 18.28L32.66 18.28L32.66 18.28Q31.82 18.28 31.12 17.87L31.12 17.87L31.12 17.87Q30.41 17.46 30.00 16.74L30.00 16.74L30.00 16.74Q29.60 16.03 29.60 15.16L29.60 15.16L29.60 15.16Q29.60 13.64 30.50 12.52L30.50 12.52L30.50 12.52Q31.40 11.40 32.86 10.96L32.86 10.96ZM39.40 10.51L39.40 10.51Q39.87 10.51 40.09 10.68L40.09 10.68L40.09 10.68Q40.31 10.85 40.31 11.20L40.31 11.20L40.31 11.20Q40.31 11.58 40.16 11.87L40.16 11.87L40.16 11.87Q40.01 12.17 39.84 12.38L39.84 12.38L39.84 12.38Q39.68 12.59 39.62 12.67L39.62 12.67L39.62 12.67Q39.79 12.95 40.25 13.33L40.25 13.33L40.25 13.33Q40.63 13.65 40.85 13.90L40.85 13.90L40.85 13.90Q41.08 14.15 41.24 14.58L41.24 14.58L41.24 14.58Q41.40 15.01 41.40 15.62L41.40 15.62L41.40 15.62Q41.40 16.35 41.07 16.95L41.07 16.95L41.07 16.95Q40.74 17.56 40.16 17.91L40.16 17.91L40.16 17.91Q39.58 18.26 38.85 18.26L38.85 18.26L38.85 18.26Q38.40 18.26 37.87 18.07L37.87 18.07L37.87 18.07Q37.34 17.88 37.09 17.53L37.09 17.53L38.02 16.28L38.02 16.28Q38.36 16.72 38.73 17.02L38.73 17.02L38.73 17.02Q39.10 17.33 39.54 17.33L39.54 17.33L39.54 17.33Q40.14 17.33 40.57 16.93L40.57 16.93L40.57 16.93Q40.99 16.53 40.99 15.97L40.99 15.97L40.99 15.97Q40.99 15.53 40.62 15.09L40.62 15.09L40.62 15.09Q40.25 14.64 39.58 14.04L39.58 14.04L39.58 14.04Q39.49 13.97 39.26 13.76L39.26 13.76L39.26 13.76Q39.02 13.54 38.91 13.40L38.91 13.40L37.93 14.84L37.48 14.55L38.60 12.99L38.60 12.99Q38.40 12.45 38.40 11.91L38.40 11.91L38.40 11.91Q38.40 11.31 38.67 10.91L38.67 10.91L38.67 10.91Q38.93 10.51 39.40 10.51L39.40 10.51ZM39.40 11.06L39.40 11.06Q39.21 11.06 39.17 11.16L39.17 11.16L39.17 11.16Q39.12 11.26 39.12 11.45L39.12 11.45L39.12 11.45Q39.12 11.70 39.19 11.89L39.19 11.89L39.19 11.89Q39.26 12.07 39.28 12.14L39.28 12.14L39.28 12.14Q39.44 12.04 39.57 11.78L39.57 11.78L39.57 11.78Q39.70 11.52 39.70 11.34L39.70 11.34L39.70 11.34Q39.70 11.21 39.63 11.14L39.63 11.14L39.63 11.14Q39.55 11.06 39.40 11.06L39.40 11.06ZM46.61 11.00L46.61 11.00Q47.18 11.00 47.67 11.33L47.67 11.33L47.67 11.33Q48.16 11.65 48.44 12.35L48.44 12.35L47.29 12.94L47.29 12.94Q47.15 12.45 46.74 12.17L46.74 12.17L46.74 12.17Q46.33 11.89 45.86 11.89L45.86 11.89L45.86 11.89Q45.19 11.89 44.67 12.24L44.67 12.24L44.67 12.24Q44.16 12.59 43.88 13.13L43.88 13.13L43.88 13.13Q43.60 13.68 43.60 14.24L43.60 14.24L43.60 14.24Q43.60 15.22 43.92 15.93L43.92 15.93L43.92 15.93Q44.24 16.63 44.80 17.00L44.80 17.00L44.80 17.00Q45.36 17.37 46.06 17.37L46.06 17.37L46.06 17.37Q46.90 17.37 47.53 16.96L47.53 16.96L47.53 16.96Q48.16 16.55 48.72 15.90L48.72 15.90L48.96 16.13L48.96 16.13Q48.27 17.18 47.51 17.72L47.51 17.72L47.51 17.72Q46.75 18.26 45.64 18.26L45.64 18.26L45.64 18.26Q44.77 18.26 44.09 17.85L44.09 17.85L44.09 17.85Q43.40 17.44 43.01 16.70L43.01 16.70L43.01 16.70Q42.62 15.95 42.62 14.97L42.62 14.97L42.62 14.97Q42.62 13.87 43.06 12.97L43.06 12.97L43.06 12.97Q43.51 12.07 44.41 11.54L44.41 11.54L44.41 11.54Q45.30 11.00 46.61 11.00L46.61 11.00ZM53.19 12.80L53.19 12.80Q52.56 13.45 52.10 14.51L52.10 14.51L52.10 14.51Q51.65 15.57 51.65 16.44L51.65 16.44L51.65 16.44Q51.65 17.19 51.98 17.70L51.98 17.70L51.98 17.70Q52.30 18.21 53.03 18.21L53.03 18.21L53.03 18.21Q53.62 18.21 54.16 17.91L54.16 17.91L54.16 17.91Q54.70 17.60 55.08 17.11L55.08 17.11L54.92 16.90L54.92 16.90Q54.49 17.19 54.07 17.19L54.07 17.19L54.07 17.19Q53.41 17.19 53.07 16.73L53.07 16.73L53.07 16.73Q52.74 16.27 52.74 15.61L52.74 15.61L52.74 15.61Q52.74 14.55 53.28 13.59L53.28 13.59L53.28 13.59Q53.83 12.64 54.67 11.75L54.67 11.75L54.45 11.55L54.45 11.55Q53.47 12.17 52.65 12.17L52.65 12.17L52.65 12.17Q52.18 12.17 51.79 11.74L51.79 11.74L51.79 11.74Q51.39 11.31 51.18 10.79L51.18 10.79L50.05 12.07L50.05 12.07Q50.15 12.35 50.58 12.71L50.58 12.71L49.64 14.67L50.16 14.91L51.07 12.91L51.07 12.91Q51.31 13.01 51.46 13.03L51.46 13.03L51.46 13.03Q51.62 13.06 51.88 13.06L51.88 13.06L51.88 13.06Q52.57 13.06 53.14 12.75L53.14 12.75L53.19 12.80ZM58.04 6.41L57.57 9.67L57.11 9.84L56.53 6.93L58.04 6.41ZM58.03 11.14L58.03 16.91L58.03 16.91Q58.03 17.12 58.13 17.26L58.13 17.26L58.13 17.26Q58.24 17.39 58.44 17.39L58.44 17.39L58.44 17.39Q58.59 17.39 58.78 17.25L58.78 17.25L58.78 17.25Q58.97 17.11 59.16 16.84L59.16 16.84L59.39 17.05L59.39 17.05Q59.07 17.65 58.61 17.91L58.61 17.91L58.61 17.91Q58.16 18.16 57.78 18.16L57.78 18.16L57.78 18.16Q57.27 18.16 57.00 17.84L57.00 17.84L57.00 17.84Q56.73 17.51 56.73 16.74L56.73 16.74L56.73 11.65L58.03 11.14ZM62.33 7.36L62.33 11.09L64.27 11.09L63.85 11.98L62.33 11.98L62.33 16.91L62.33 16.91Q62.33 17.12 62.45 17.26L62.45 17.26L62.45 17.26Q62.58 17.39 62.79 17.39L62.79 17.39L62.79 17.39Q63.08 17.39 63.60 16.84L63.60 16.84L63.80 17.05L63.80 17.05Q63.53 17.58 63.16 17.84L63.16 17.84L63.16 17.84Q62.79 18.10 62.46 18.17L62.46 18.17L62.46 18.17Q62.13 18.23 62.13 18.17L62.13 18.17L62.13 18.17Q62.15 18.17 62.17 18.17L62.17 18.17L62.17 18.17Q62.20 18.16 62.26 18.16L62.26 18.16L62.26 18.16Q61.03 18.16 61.03 16.74L61.03 16.74L61.03 11.98L59.98 11.98L60.41 11.09L61.03 11.09L61.03 7.87L62.33 7.36ZM67.17 7.36L67.17 11.09L69.12 11.09L68.70 11.98L67.17 11.98L67.17 16.91L67.17 16.91Q67.17 17.12 67.30 17.26L67.30 17.26L67.30 17.26Q67.42 17.39 67.63 17.39L67.63 17.39L67.63 17.39Q67.93 17.39 68.45 16.84L68.45 16.84L68.64 17.05L68.64 17.05Q68.38 17.58 68.00 17.84L68.00 17.84L68.00 17.84Q67.63 18.10 67.30 18.17L67.30 18.17L67.30 18.17Q66.98 18.23 66.98 18.17L66.98 18.17L66.98 18.17Q66.99 18.17 67.02 18.17L67.02 18.17L67.02 18.17Q67.05 18.16 67.10 18.16L67.10 18.16L67.10 18.16Q65.87 18.16 65.87 16.74L65.87 16.74L65.87 11.98L64.82 11.98L65.25 11.09L65.87 11.09L65.87 7.87L67.17 7.36ZM71.88 6.41L71.40 9.67L70.94 9.84L70.36 6.93L71.88 6.41ZM71.86 11.14L71.86 16.91L71.86 16.91Q71.86 17.12 71.97 17.26L71.97 17.26L71.97 17.26Q72.07 17.39 72.27 17.39L72.27 17.39L72.27 17.39Q72.42 17.39 72.61 17.25L72.61 17.25L72.61 17.25Q72.80 17.11 73.00 16.84L73.00 16.84L73.22 17.05L73.22 17.05Q72.90 17.65 72.44 17.91L72.44 17.91L72.44 17.91Q71.99 18.16 71.61 18.16L71.61 18.16L71.61 18.16Q71.11 18.16 70.83 17.84L70.83 17.84L70.83 17.84Q70.56 17.51 70.56 16.74L70.56 16.74L70.56 11.65L71.86 11.14ZM83.80 8.12L83.80 8.53L83.80 8.53Q82.25 8.74 81.00 9.60L81.00 9.60L81.00 9.60Q79.76 10.46 79.05 11.77L79.05 11.77L79.05 11.77Q78.34 13.08 78.34 14.60L78.34 14.60L78.34 14.60Q78.34 15.88 78.83 16.62L78.83 16.62L78.83 16.62Q79.32 17.36 80.12 17.36L80.12 17.36L80.12 17.36Q80.91 17.36 81.63 16.28L81.63 16.28L81.63 16.28Q82.35 15.19 82.79 13.43L82.79 13.43L82.79 13.43Q83.23 11.68 83.23 9.77L83.23 9.77L84.55 9.25L84.55 16.59L84.55 16.59Q84.55 16.98 84.71 17.22L84.71 17.22L84.71 17.22Q84.88 17.46 85.18 17.46L85.18 17.46L85.18 17.46Q85.40 17.46 85.64 17.31L85.64 17.31L85.64 17.31Q85.88 17.16 86.00 16.95L86.00 16.95L86.20 17.14L86.20 17.14Q86.00 17.57 85.60 17.86L85.60 17.86L85.60 17.86Q85.19 18.16 84.67 18.16L84.67 18.16L84.67 18.16Q84.03 18.16 83.63 17.71L83.63 17.71L83.63 17.71Q83.23 17.26 83.23 16.44L83.23 16.44L83.23 13.76L83.16 13.76L83.16 13.76Q82.15 18.24 79.74 18.24L79.74 18.24L79.74 18.24Q78.50 18.24 77.74 17.37L77.74 17.37L77.74 17.37Q76.99 16.49 76.99 14.97L76.99 14.97L76.99 14.97Q76.99 13.22 77.91 11.68L77.91 11.68L77.91 11.68Q78.83 10.14 80.40 9.17L80.40 9.17L80.40 9.17Q81.97 8.20 83.80 8.12L83.80 8.12ZM92.18 10.96L92.18 10.96Q92.74 10.96 92.90 11.38L92.90 11.38L92.90 11.38Q93.07 11.79 93.07 12.52L93.07 12.52L93.07 12.95L93.07 16.91L93.07 16.91Q93.07 17.07 93.17 17.23L93.17 17.23L93.17 17.23Q93.27 17.39 93.45 17.39L93.45 17.39L93.45 17.39Q93.69 17.39 93.86 17.23L93.86 17.23L93.86 17.23Q94.02 17.08 94.19 16.84L94.19 16.84L94.40 17.05L94.40 17.05Q94.19 17.50 93.77 17.83L93.77 17.83L93.77 17.83Q93.35 18.16 92.97 18.16L92.97 18.16L92.97 18.16Q92.41 18.16 92.11 17.81L92.11 17.81L92.11 17.81Q91.80 17.46 91.80 16.74L91.80 16.74L91.80 13.03L91.80 13.03Q91.80 12.82 91.76 12.68L91.76 12.68L91.76 12.68Q91.71 12.54 91.55 12.54L91.55 12.54L91.55 12.54Q90.97 12.54 90.37 13.65L90.37 13.65L90.37 13.65Q89.77 14.76 89.34 16.12L89.34 16.12L89.34 16.12Q88.91 17.49 88.91 17.92L88.91 17.92L87.70 18.28L87.70 12.29L87.70 12.29Q87.70 12.10 87.59 11.94L87.59 11.94L87.59 11.94Q87.49 11.77 87.29 11.77L87.29 11.77L87.29 11.77Q86.95 11.77 86.56 12.38L86.56 12.38L86.35 12.15L86.35 12.15Q86.53 11.65 86.95 11.30L86.95 11.30L86.95 11.30Q87.37 10.96 87.79 10.96L87.79 10.96L87.79 10.96Q88.38 10.96 88.67 11.24L88.67 11.24L88.67 11.24Q88.96 11.52 88.96 12.01L88.96 12.01L88.96 15.69L89.01 15.69L89.01 15.69Q89.39 14.45 89.74 13.52L89.74 13.52L89.74 13.52Q90.09 12.60 90.72 11.78L90.72 11.78L90.72 11.78Q91.35 10.96 92.18 10.96L92.18 10.96ZM97.33 7.36L97.33 11.09L99.27 11.09L98.85 11.98L97.33 11.98L97.33 16.91L97.33 16.91Q97.33 17.12 97.45 17.26L97.45 17.26L97.45 17.26Q97.58 17.39 97.79 17.39L97.79 17.39L97.79 17.39Q98.08 17.39 98.60 16.84L98.60 16.84L98.80 17.05L98.80 17.05Q98.53 17.58 98.16 17.84L98.16 17.84L98.16 17.84Q97.79 18.10 97.46 18.17L97.46 18.17L97.46 18.17Q97.13 18.23 97.13 18.17L97.13 18.17L97.13 18.17Q97.15 18.17 97.17 18.17L97.17 18.17L97.17 18.17Q97.20 18.16 97.26 18.16L97.26 18.16L97.26 18.16Q96.03 18.16 96.03 16.74L96.03 16.74L96.03 11.98L94.98 11.98L95.41 11.09L96.03 11.09L96.03 7.87L97.33 7.36ZM102.03 6.41L101.56 9.67L101.09 9.84L100.52 6.93L102.03 6.41ZM102.02 11.14L102.02 16.91L102.02 16.91Q102.02 17.12 102.12 17.26L102.12 17.26L102.12 17.26Q102.23 17.39 102.42 17.39L102.42 17.39L102.42 17.39Q102.58 17.39 102.77 17.25L102.77 17.25L102.77 17.25Q102.96 17.11 103.15 16.84L103.15 16.84L103.38 17.05L103.38 17.05Q103.05 17.65 102.60 17.91L102.60 17.91L102.60 17.91Q102.14 18.16 101.77 18.16L101.77 18.16L101.77 18.16Q101.26 18.16 100.99 17.84L100.99 17.84L100.99 17.84Q100.72 17.51 100.72 16.74L100.72 16.74L100.72 11.65L102.02 11.14ZM109.68 10.96L109.68 10.96Q110.24 10.96 110.40 11.38L110.40 11.38L110.40 11.38Q110.57 11.79 110.57 12.52L110.57 12.52L110.57 12.95L110.57 16.91L110.57 16.91Q110.57 17.07 110.67 17.23L110.67 17.23L110.67 17.23Q110.77 17.39 110.95 17.39L110.95 17.39L110.95 17.39Q111.19 17.39 111.36 17.23L111.36 17.23L111.36 17.23Q111.52 17.08 111.69 16.84L111.69 16.84L111.90 17.05L111.90 17.05Q111.69 17.50 111.27 17.83L111.27 17.83L111.27 17.83Q110.85 18.16 110.47 18.16L110.47 18.16L110.47 18.16Q109.91 18.16 109.61 17.81L109.61 17.81L109.61 17.81Q109.30 17.46 109.30 16.74L109.30 16.74L109.30 13.03L109.30 13.03Q109.30 12.82 109.26 12.68L109.26 12.68L109.26 12.68Q109.21 12.54 109.05 12.54L109.05 12.54L109.05 12.54Q108.47 12.54 107.87 13.65L107.87 13.65L107.87 13.65Q107.27 14.76 106.84 16.12L106.84 16.12L106.84 16.12Q106.41 17.49 106.41 17.92L106.41 17.92L105.20 18.28L105.20 12.29L105.20 12.29Q105.20 12.10 105.09 11.94L105.09 11.94L105.09 11.94Q104.99 11.77 104.79 11.77L104.79 11.77L104.79 11.77Q104.45 11.77 104.06 12.38L104.06 12.38L103.85 12.15L103.85 12.15Q104.03 11.65 104.45 11.30L104.45 11.30L104.45 11.30Q104.87 10.96 105.29 10.96L105.29 10.96L105.29 10.96Q105.88 10.96 106.17 11.24L106.17 11.24L106.17 11.24Q106.46 11.52 106.46 12.01L106.46 12.01L106.46 15.69L106.51 15.69L106.51 15.69Q106.89 14.45 107.24 13.52L107.24 13.52L107.24 13.52Q107.59 12.60 108.22 11.78L108.22 11.78L108.22 11.78Q108.85 10.96 109.68 10.96L109.68 10.96ZM116.02 10.96L116.27 11.26L116.27 11.26Q115.22 11.93 114.62 12.75L114.62 12.75L114.62 12.75Q114.02 13.58 114.02 14.70L114.02 14.70L114.02 14.70Q114.02 15.33 114.28 15.97L114.28 15.97L114.28 15.97Q114.55 16.60 115.08 17.02L115.08 17.02L115.08 17.02Q115.61 17.44 116.35 17.44L116.35 17.44L116.35 17.44Q116.96 17.44 117.43 17.16L117.43 17.16L117.43 17.16Q117.89 16.88 118.15 16.41L118.15 16.41L118.15 16.41Q118.41 15.93 118.41 15.36L118.41 15.36L118.41 15.36Q118.41 14.70 118.01 14.01L118.01 14.01L118.01 14.01Q117.61 13.33 116.97 12.85L116.97 12.85L116.97 12.85Q116.33 12.38 115.65 12.32L115.65 12.32L115.65 12.32Q115.93 12.04 116.33 11.73L116.33 11.73L116.33 11.73Q116.72 11.42 117.12 11.13L117.12 11.13L117.12 11.13Q118.09 11.45 118.65 12.36L118.65 12.36L118.65 12.36Q119.21 13.26 119.21 14.36L119.21 14.36L119.21 14.36Q119.21 15.34 118.81 16.25L118.81 16.25L118.81 16.25Q118.41 17.15 117.64 17.72L117.64 17.72L117.64 17.72Q116.87 18.28 115.82 18.28L115.82 18.28L115.82 18.28Q114.98 18.28 114.28 17.87L114.28 17.87L114.28 17.87Q113.57 17.46 113.16 16.74L113.16 16.74L113.16 16.74Q112.76 16.03 112.76 15.16L112.76 15.16L112.76 15.16Q112.76 13.64 113.66 12.52L113.66 12.52L113.66 12.52Q114.56 11.40 116.02 10.96L116.02 10.96ZM123.69 12.80L123.69 12.80Q123.06 13.45 122.61 14.51L122.61 14.51L122.61 14.51Q122.15 15.57 122.15 16.44L122.15 16.44L122.15 16.44Q122.15 17.19 122.48 17.70L122.48 17.70L122.48 17.70Q122.81 18.21 123.54 18.21L123.54 18.21L123.54 18.21Q124.12 18.21 124.66 17.91L124.66 17.91L124.66 17.91Q125.20 17.60 125.58 17.11L125.58 17.11L125.43 16.90L125.43 16.90Q124.99 17.19 124.57 17.19L124.57 17.19L124.57 17.19Q123.91 17.19 123.58 16.73L123.58 16.73L123.58 16.73Q123.24 16.27 123.24 15.61L123.24 15.61L123.24 15.61Q123.24 14.55 123.79 13.59L123.79 13.59L123.79 13.59Q124.33 12.64 125.17 11.75L125.17 11.75L124.95 11.55L124.95 11.55Q123.97 12.17 123.16 12.17L123.16 12.17L123.16 12.17Q122.68 12.17 122.29 11.74L122.29 11.74L122.29 11.74Q121.90 11.31 121.69 10.79L121.69 10.79L120.55 12.07L120.55 12.07Q120.65 12.35 121.09 12.71L121.09 12.71L120.15 14.67L120.67 14.91L121.58 12.91L121.58 12.91Q121.81 13.01 121.97 13.03L121.97 13.03L121.97 13.03Q122.12 13.06 122.39 13.06L122.39 13.06L122.39 13.06Q123.07 13.06 123.65 12.75L123.65 12.75L123.69 12.80ZM128.55 6.41L128.07 9.67L127.61 9.84L127.04 6.93L128.55 6.41ZM128.53 11.14L128.53 16.91L128.53 16.91Q128.53 17.12 128.64 17.26L128.64 17.26L128.64 17.26Q128.74 17.39 128.94 17.39L128.94 17.39L128.94 17.39Q129.09 17.39 129.28 17.25L129.28 17.25L129.28 17.25Q129.47 17.11 129.67 16.84L129.67 16.84L129.89 17.05L129.89 17.05Q129.57 17.65 129.12 17.91L129.12 17.91L129.12 17.91Q128.66 18.16 128.28 18.16L128.28 18.16L128.28 18.16Q127.78 18.16 127.51 17.84L127.51 17.84L127.51 17.84Q127.23 17.51 127.23 16.74L127.23 16.74L127.23 11.65L128.53 11.14ZM134.51 11.09L134.51 11.09Q135.20 11.09 135.81 11.38L135.81 11.38L135.81 11.38Q136.42 11.68 136.70 12.28L136.70 12.28L135.69 12.82L135.69 12.82Q135.46 12.50 135.07 12.24L135.07 12.24L135.07 12.24Q134.68 11.98 134.23 11.98L134.23 11.98L134.23 11.98Q133.52 11.98 132.99 12.36L132.99 12.36L132.99 12.36Q132.45 12.73 132.17 13.36L132.17 13.36L132.17 13.36Q131.89 13.99 131.89 14.76L131.89 14.76L131.89 14.76Q131.89 15.86 132.27 16.55L132.27 16.55L132.27 16.55Q132.65 17.25 133.46 17.25L133.46 17.25L133.46 17.25Q134.61 17.25 135.04 16.32L135.04 16.32L135.04 16.32Q135.48 15.40 135.48 14.31L135.48 14.31L135.48 13.68L136.71 13.16L136.71 16.84L136.71 16.84Q136.71 17.02 136.81 17.19L136.81 17.19L136.81 17.19Q136.91 17.36 137.10 17.36L137.10 17.36L137.10 17.36Q137.51 17.36 137.84 16.80L137.84 16.80L138.05 17.02L138.05 17.02Q137.89 17.50 137.47 17.83L137.47 17.83L137.47 17.83Q137.05 18.16 136.63 18.16L136.63 18.16L136.63 18.16Q136.02 18.16 135.74 17.71L135.74 17.71L135.74 17.71Q135.45 17.26 135.45 16.52L135.45 16.52L135.42 16.52L135.42 16.52Q135.07 17.26 134.48 17.76L134.48 17.76L134.48 17.76Q133.88 18.26 133.22 18.26L133.22 18.26L133.22 18.26Q132.03 18.26 131.42 17.44L131.42 17.44L131.42 17.44Q130.82 16.62 130.82 15.25L130.82 15.25L130.82 15.25Q130.82 14.15 131.31 13.20L131.31 13.20L131.31 13.20Q131.80 12.24 132.64 11.66L132.64 11.66L132.64 11.66Q133.49 11.09 134.51 11.09L134.51 11.09ZM144.24 10.96L144.24 10.96Q144.80 10.96 144.97 11.38L144.97 11.38L144.97 11.38Q145.14 11.79 145.14 12.52L145.14 12.52L145.14 12.95L145.14 16.91L145.14 16.91Q145.14 17.07 145.24 17.23L145.24 17.23L145.24 17.23Q145.33 17.39 145.52 17.39L145.52 17.39L145.52 17.39Q145.75 17.39 145.92 17.23L145.92 17.23L145.92 17.23Q146.09 17.08 146.26 16.84L146.26 16.84L146.47 17.05L146.47 17.05Q146.26 17.50 145.84 17.83L145.84 17.83L145.84 17.83Q145.42 18.16 145.04 18.16L145.04 18.16L145.04 18.16Q144.48 18.16 144.17 17.81L144.17 17.81L144.17 17.81Q143.86 17.46 143.86 16.74L143.86 16.74L143.86 13.03L143.86 13.03Q143.86 12.82 143.82 12.68L143.82 12.68L143.82 12.68Q143.78 12.54 143.61 12.54L143.61 12.54L143.61 12.54Q143.04 12.54 142.44 13.65L142.44 13.65L142.44 13.65Q141.83 14.76 141.41 16.12L141.41 16.12L141.41 16.12Q140.98 17.49 140.98 17.92L140.98 17.92L139.76 18.28L139.76 12.29L139.76 12.29Q139.76 12.10 139.66 11.94L139.66 11.94L139.66 11.94Q139.55 11.77 139.36 11.77L139.36 11.77L139.36 11.77Q139.02 11.77 138.63 12.38L138.63 12.38L138.42 12.15L138.42 12.15Q138.60 11.65 139.02 11.30L139.02 11.30L139.02 11.30Q139.44 10.96 139.86 10.96L139.86 10.96L139.86 10.96Q140.45 10.96 140.74 11.24L140.74 11.24L140.74 11.24Q141.02 11.52 141.02 12.01L141.02 12.01L141.02 15.69L141.08 15.69L141.08 15.69Q141.46 14.45 141.81 13.52L141.81 13.52L141.81 13.52Q142.16 12.60 142.79 11.78L142.79 11.78L142.79 11.78Q143.42 10.96 144.24 10.96L144.24 10.96ZM149.25 6.41L148.78 9.67L148.32 9.84L147.74 6.93L149.25 6.41ZM149.24 11.14L149.24 16.91L149.24 16.91Q149.24 17.12 149.34 17.26L149.34 17.26L149.34 17.26Q149.45 17.39 149.65 17.39L149.65 17.39L149.65 17.39Q149.80 17.39 149.99 17.25L149.99 17.25L149.99 17.25Q150.18 17.11 150.37 16.84L150.37 16.84L150.60 17.05L150.60 17.05Q150.28 17.65 149.82 17.91L149.82 17.91L149.82 17.91Q149.37 18.16 148.99 18.16L148.99 18.16L148.99 18.16Q148.48 18.16 148.21 17.84L148.21 17.84L148.21 17.84Q147.94 17.51 147.94 16.74L147.94 16.74L147.94 11.65L149.24 11.14Z"></path></g><!----><g data-v-423bf9ae="" id="10f0aecd-7c4c-40bf-8e5a-94eeaa7c5a14" transform="matrix(1.1111112806532117,0,0,1.1111112806532117,0.4446615643328826,0.44442960951257504)" stroke="none" fill="black"><path d="M99.804 44.773C96.92 17.357 72.258-2.607 44.812.277 31.52 1.673 19.568 8.157 11.157 18.536 2.745 28.915-1.117 41.944.28 55.226 2.978 80.875 24.743 100 50.007 100c1.739 0 3.497-.091 5.266-.276 6.831-.719 13.309-2.773 19.25-6.107a6.995 6.995 0 0 0 2.679-9.529 7.01 7.01 0 0 0-9.537-2.677 35.81 35.81 0 0 1-13.856 4.391c-19.75 2.081-37.517-12.298-39.594-32.038-1.006-9.562 1.775-18.944 7.831-26.417 6.056-7.473 14.662-12.142 24.231-13.146 19.766-2.079 37.518 12.298 39.594 32.038.518 4.919-.646 8.802-3.193 10.651a5.384 5.384 0 0 1-5.401.567c-2.875-1.279-4.821-4.835-5.339-9.755l-.003-.019C70.77 36.637 61.397 28.001 50.042 28.001c-12.14 0-22.016 9.869-22.016 21.999s9.876 21.999 22.016 21.999c5.905 0 11.27-2.34 15.228-6.135a20.595 20.595 0 0 0 6.308 4.38c6.423 2.854 13.649 2.097 19.336-2.031 6.704-4.868 9.944-13.411 8.89-23.44zM50.042 58c-4.415 0-8.006-3.589-8.006-8s3.591-8 8.006-8c4.414 0 8.005 3.589 8.005 8s-3.592 8-8.005 8z"></path></g><!----></svg>