<svg data-v-423bf9ae="" xmlns="http://www.w3.org/2000/svg" viewBox="0 0 469.4804855949772 60" class="font"><!----><!----><!----><g data-v-423bf9ae="" id="aa38db1c-f865-4fad-a7d3-6f7de3119997" fill="black" transform="matrix(4.329004138368367,0,0,4.329004138368367,7.2727343161701015,-10.129869550639157)"><path d="M9.98 4.03L9.98 4.03L9.98 4.03Q9.57 5.17 9.21 6.34L9.21 6.34L9.21 6.34Q8.85 7.51 8.57 8.84L8.57 8.84L8.57 8.84Q8.30 10.17 8.13 11.71L8.13 11.71L8.13 11.71Q7.97 13.25 7.96 15.12L7.96 15.12L7.96 15.12Q7.88 15.18 7.72 15.27L7.72 15.27L7.72 15.27Q7.56 15.36 7.37 15.47L7.37 15.47L7.37 15.47Q7.17 15.57 6.96 15.68L6.96 15.68L6.96 15.68Q6.75 15.79 6.55 15.89L6.55 15.89L6.55 15.89Q6.36 16.00 6.20 16.08L6.20 16.08L6.20 16.08Q6.04 16.16 5.96 16.20L5.96 16.20L5.96 16.20Q5.97 15.69 6.03 15.07L6.03 15.07L6.03 15.07Q6.09 14.46 6.20 13.78L6.20 13.78L6.20 13.78Q6.30 13.10 6.44 12.37L6.44 12.37L6.44 12.37Q6.58 11.63 6.75 10.89L6.75 10.89L6.75 10.89Q6.25 11.55 5.81 11.99L5.81 11.99L5.81 11.99Q5.36 12.43 5.01 12.70L5.01 12.70L5.01 12.70Q4.61 13.02 4.26 13.20L4.26 13.20L4.26 13.20Q4.12 13.28 3.91 13.21L3.91 13.21L3.91 13.21Q3.71 13.15 3.50 13.01L3.50 13.01L3.50 13.01Q3.30 12.87 3.13 12.71L3.13 12.71L3.13 12.71Q2.97 12.54 2.90 12.43L2.90 12.43L2.90 12.43Q2.83 12.33 2.75 11.81L2.75 11.81L2.75 11.81Q2.67 11.30 2.64 10.34L2.64 10.34L2.64 10.34Q2.34 10.73 2.00 11.15L2.00 11.15L2.00 11.15Q1.66 11.57 1.31 11.99L1.31 11.99L1.31 11.99Q0.96 12.41 0.62 12.81L0.62 12.81L0.62 12.81Q0.27 13.20-0.02 13.52L-0.02 13.52L-0.02 13.52Q-0.32 13.85-0.56 14.09L-0.56 14.09L-0.56 14.09Q-0.79 14.32-0.92 14.42L-0.92 14.42L-0.92 14.42Q-0.99 14.35-1.09 14.25L-1.09 14.25L-1.09 14.25Q-1.19 14.16-1.30 14.05L-1.30 14.05L-1.30 14.05Q-1.40 13.95-1.50 13.84L-1.50 13.84L-1.50 13.84Q-1.61 13.73-1.68 13.64L-1.68 13.64L-1.68 13.64Q-0.68 12.76 0.34 11.17L0.34 11.17L0.34 11.17Q1.37 9.57 2.30 7.32L2.30 7.32L2.30 7.32Q2.40 7.41 2.49 7.49L2.49 7.49L2.49 7.49Q2.58 7.57 2.66 7.66L2.66 7.66L2.66 7.66Q2.71 6.58 2.83 5.26L2.83 5.26L2.83 5.26Q2.94 3.94 3.15 2.34L3.15 2.34L3.15 2.34Q3.19 2.35 3.31 2.47L3.31 2.47L3.31 2.47Q3.44 2.58 3.61 2.76L3.61 2.76L3.61 2.76Q3.78 2.93 3.97 3.13L3.97 3.13L3.97 3.13Q4.16 3.34 4.34 3.52L4.34 3.52L4.34 3.52Q4.51 3.71 4.64 3.85L4.64 3.85L4.64 3.85Q4.77 3.99 4.82 4.05L4.82 4.05L4.82 4.05Q4.81 4.10 4.76 4.34L4.76 4.34L4.76 4.34Q4.71 4.58 4.65 4.96L4.65 4.96L4.65 4.96Q4.58 5.33 4.50 5.82L4.50 5.82L4.50 5.82Q4.43 6.30 4.37 6.85L4.37 6.85L4.37 6.85Q4.31 7.39 4.26 7.97L4.26 7.97L4.26 7.97Q4.22 8.54 4.21 9.10L4.21 9.10L4.21 9.10Q4.20 9.33 4.20 9.64L4.20 9.64L4.20 9.64Q4.20 9.94 4.20 10.26L4.20 10.26L4.20 10.26Q4.20 10.58 4.21 10.89L4.21 10.89L4.21 10.89Q4.22 11.20 4.24 11.45L4.24 11.45L4.24 11.45Q4.26 11.70 4.30 11.86L4.30 11.86L4.30 11.86Q4.33 12.02 4.40 12.04L4.40 12.04L4.40 12.04Q4.47 12.06 4.76 11.84L4.76 11.84L4.76 11.84Q5.04 11.62 5.45 11.20L5.45 11.20L5.45 11.20Q5.85 10.77 6.33 10.17L6.33 10.17L6.33 10.17Q6.80 9.56 7.25 8.81L7.25 8.81L7.25 8.81Q7.45 8.01 7.66 7.27L7.66 7.27L7.66 7.27Q7.87 6.52 8.06 5.89L8.06 5.89L8.06 5.89Q8.26 5.25 8.43 4.75L8.43 4.75L8.43 4.75Q8.60 4.25 8.74 3.92L8.74 3.92L8.74 3.92Q8.87 3.93 9.05 3.94L9.05 3.94L9.05 3.94Q9.22 3.95 9.40 3.97L9.40 3.97L9.40 3.97Q9.58 3.99 9.73 4.00L9.73 4.00L9.73 4.00Q9.88 4.02 9.98 4.03ZM13.51 13.08L13.51 13.08L13.51 13.08Q13.51 13.12 13.55 13.12L13.55 13.12L13.55 13.12Q13.61 13.12 13.75 13.03L13.75 13.03L13.75 13.03Q13.90 12.94 14.08 12.80L14.08 12.80L14.08 12.80Q14.27 12.67 14.48 12.50L14.48 12.50L14.48 12.50Q14.68 12.33 14.88 12.16L14.88 12.16L14.88 12.16Q15.07 12.00 15.22 11.86L15.22 11.86L15.22 11.86Q15.37 11.72 15.46 11.65L15.46 11.65L15.46 11.65Q15.52 11.71 15.61 11.81L15.61 11.81L15.61 11.81Q15.70 11.92 15.78 12.00L15.78 12.00L15.78 12.00Q15.61 12.15 15.38 12.36L15.38 12.36L15.38 12.36Q15.16 12.58 14.89 12.81L14.89 12.81L14.89 12.81Q14.63 13.04 14.35 13.27L14.35 13.27L14.35 13.27Q14.07 13.50 13.80 13.68L13.80 13.68L13.80 13.68Q13.54 13.86 13.30 13.97L13.30 13.97L13.30 13.97Q13.06 14.08 12.88 14.08L12.88 14.08L12.88 14.08Q12.76 14.08 12.61 14.03L12.61 14.03L12.61 14.03Q12.46 13.99 12.34 13.90L12.34 13.90L12.34 13.90Q12.22 13.82 12.13 13.70L12.13 13.70L12.13 13.70Q12.05 13.58 12.05 13.44L12.05 13.44L12.05 13.44Q12.05 13.38 12.05 13.31L12.05 13.31L12.05 13.31Q12.04 13.23 12.06 13.10L12.06 13.10L12.06 13.10Q12.07 12.97 12.11 12.79L12.11 12.79L12.11 12.79Q12.15 12.61 12.24 12.35L12.24 12.35L12.24 12.35Q12.01 12.58 11.71 12.84L11.71 12.84L11.71 12.84Q11.40 13.10 11.07 13.34L11.07 13.34L11.07 13.34Q10.73 13.57 10.39 13.76L10.39 13.76L10.39 13.76Q10.06 13.95 9.77 14.04L9.77 14.04L9.77 14.04Q9.73 14.05 9.71 14.05L9.71 14.05L9.71 14.05Q9.69 14.05 9.67 14.05L9.67 14.05L9.67 14.05Q9.60 14.05 9.49 13.99L9.49 13.99L9.49 13.99Q9.38 13.92 9.27 13.81L9.27 13.81L9.27 13.81Q9.16 13.69 9.08 13.55L9.08 13.55L9.08 13.55Q9.00 13.41 9.00 13.26L9.00 13.26L9.00 13.26Q9.00 13.22 9.04 12.99L9.04 12.99L9.04 12.99Q9.08 12.76 9.24 12.40L9.24 12.40L9.24 12.40Q9.39 12.04 9.69 11.59L9.69 11.59L9.69 11.59Q9.99 11.14 10.51 10.67L10.51 10.67L10.51 10.67Q10.78 10.43 11.09 10.22L11.09 10.22L11.09 10.22Q11.35 10.04 11.68 9.86L11.68 9.86L11.68 9.86Q12.02 9.67 12.39 9.56L12.39 9.56L12.39 9.56Q12.40 9.56 12.41 9.56L12.41 9.56L12.41 9.56Q12.42 9.55 12.44 9.56L12.44 9.56L12.44 9.56Q12.52 9.59 12.64 9.65L12.64 9.65L12.64 9.65Q12.75 9.71 12.86 9.77L12.86 9.77L12.86 9.77Q12.97 9.84 13.06 9.90L13.06 9.90L13.06 9.90Q13.15 9.97 13.17 10.01L13.17 10.01L13.17 10.01Q13.18 10.02 13.17 10.03L13.17 10.03L13.16 10.04L13.16 10.04Q12.85 10.21 12.58 10.41L12.58 10.41L12.58 10.41Q12.30 10.61 12.09 10.79L12.09 10.79L12.09 10.79Q11.85 11.00 11.63 11.20L11.63 11.20L11.63 11.20Q11.14 11.70 10.94 12.06L10.94 12.06L10.94 12.06Q10.75 12.41 10.75 12.57L10.75 12.57L10.75 12.57Q10.75 12.69 10.85 12.69L10.85 12.69L10.85 12.69Q10.94 12.69 11.09 12.61L11.09 12.61L11.09 12.61Q11.24 12.53 11.42 12.40L11.42 12.40L11.42 12.40Q11.61 12.26 11.83 12.08L11.83 12.08L11.83 12.08Q12.05 11.90 12.29 11.70L12.29 11.70L12.29 11.70Q12.50 11.53 12.70 11.33L12.70 11.33L12.70 11.33Q12.87 11.17 13.06 10.96L13.06 10.96L13.06 10.96Q13.24 10.75 13.37 10.53L13.37 10.53L13.37 10.53Q13.37 10.52 13.38 10.51L13.38 10.51L13.38 10.51Q13.38 10.51 13.40 10.51L13.40 10.51L13.40 10.51Q13.47 10.57 13.57 10.69L13.57 10.69L13.57 10.69Q13.67 10.82 13.75 10.97L13.75 10.97L13.75 10.97Q13.83 11.12 13.89 11.26L13.89 11.26L13.89 11.26Q13.95 11.40 13.95 11.48L13.95 11.48L13.95 11.48Q13.79 11.80 13.70 12.06L13.70 12.06L13.70 12.06Q13.62 12.33 13.57 12.52L13.57 12.52L13.57 12.52Q13.53 12.72 13.52 12.86L13.52 12.86L13.52 12.86Q13.51 13.00 13.51 13.08ZM17.38 10.38L17.38 10.38L17.38 10.38Q17.29 10.60 17.21 10.82L17.21 10.82L17.21 10.82Q17.13 11.05 17.05 11.29L17.05 11.29L17.05 11.29Q17.48 10.79 17.79 10.48L17.79 10.48L17.79 10.48Q18.10 10.17 18.32 9.99L18.32 9.99L18.32 9.99Q18.53 9.82 18.67 9.75L18.67 9.75L18.67 9.75Q18.80 9.69 18.87 9.69L18.87 9.69L18.87 9.69Q18.96 9.69 19.14 9.78L19.14 9.78L19.14 9.78Q19.32 9.86 19.50 9.99L19.50 9.99L19.50 9.99Q19.68 10.12 19.81 10.26L19.81 10.26L19.81 10.26Q19.95 10.40 19.95 10.50L19.95 10.50L19.95 10.50Q19.95 10.52 19.94 10.55L19.94 10.55L19.94 10.55Q19.93 10.58 19.92 10.63L19.92 10.63L19.92 10.63Q19.87 10.80 19.78 11.03L19.78 11.03L19.78 11.03Q19.69 11.27 19.60 11.52L19.60 11.52L19.60 11.52Q19.50 11.76 19.41 12.01L19.41 12.01L19.41 12.01Q19.31 12.26 19.24 12.48L19.24 12.48L19.24 12.48Q19.16 12.70 19.11 12.87L19.11 12.87L19.11 12.87Q19.07 13.03 19.07 13.10L19.07 13.10L19.07 13.10Q19.07 13.15 19.11 13.15L19.11 13.15L19.11 13.15Q19.18 13.15 19.33 13.06L19.33 13.06L19.33 13.06Q19.48 12.97 19.68 12.82L19.68 12.82L19.68 12.82Q19.87 12.68 20.08 12.51L20.08 12.51L20.08 12.51Q20.30 12.34 20.49 12.17L20.49 12.17L20.49 12.17Q20.69 12.00 20.84 11.87L20.84 11.87L20.84 11.87Q21 11.73 21.08 11.66L21.08 11.66L21.08 11.66Q21.15 11.72 21.23 11.82L21.23 11.82L21.23 11.82Q21.31 11.92 21.39 12.00L21.39 12.00L21.39 12.00Q21.24 12.15 21.01 12.36L21.01 12.36L21.01 12.36Q20.79 12.58 20.52 12.80L20.52 12.80L20.52 12.80Q20.26 13.03 19.98 13.25L19.98 13.25L19.98 13.25Q19.69 13.48 19.43 13.66L19.43 13.66L19.43 13.66Q19.16 13.84 18.93 13.95L18.93 13.95L18.93 13.95Q18.70 14.05 18.54 14.05L18.54 14.05L18.54 14.05Q18.44 14.05 18.28 13.98L18.28 13.98L18.28 13.98Q18.12 13.91 17.98 13.81L17.98 13.81L17.98 13.81Q17.83 13.70 17.73 13.57L17.73 13.57L17.73 13.57Q17.62 13.44 17.62 13.32L17.62 13.32L17.62 13.32Q17.68 13.04 17.79 12.68L17.79 12.68L17.79 12.68Q17.90 12.33 18.02 11.95L18.02 11.95L18.02 11.95Q18.14 11.58 18.28 11.21L18.28 11.21L18.28 11.21Q18.41 10.85 18.53 10.54L18.53 10.54L18.52 10.55L18.52 10.55Q18.39 10.71 18.15 10.97L18.15 10.97L18.15 10.97Q17.90 11.22 17.60 11.62L17.60 11.62L17.60 11.62Q17.29 12.02 16.95 12.59L16.95 12.59L16.95 12.59Q16.60 13.15 16.28 13.92L16.28 13.92L16.28 13.92Q16.24 14.02 16.20 14.08L16.20 14.08L16.20 14.08Q16.17 14.13 16.07 14.13L16.07 14.13L16.07 14.13Q15.96 14.13 15.81 14.06L15.81 14.06L15.81 14.06Q15.66 14 15.51 13.89L15.51 13.89L15.51 13.89Q15.35 13.79 15.20 13.66L15.20 13.66L15.20 13.66Q15.05 13.53 14.92 13.40L14.92 13.40L14.92 13.40Q14.92 13.36 14.96 13.17L14.96 13.17L14.96 13.17Q15.00 12.97 15.07 12.68L15.07 12.68L15.07 12.68Q15.13 12.39 15.24 12.02L15.24 12.02L15.24 12.02Q15.34 11.65 15.47 11.24L15.47 11.24L15.47 11.24Q15.60 10.83 15.75 10.40L15.75 10.40L15.75 10.40Q15.91 9.97 16.08 9.58L16.08 9.58L16.08 9.58Q16.37 9.71 16.72 9.91L16.72 9.91L16.72 9.91Q17.08 10.11 17.38 10.38ZM21.90 12.98L21.90 12.98L21.90 12.98Q21.90 13.19 22.05 13.19L22.05 13.19L22.05 13.19Q22.20 13.19 22.46 12.94L22.46 12.94L22.46 12.94Q22.72 12.69 23.00 12.30L23.00 12.30L23.00 12.30Q22.99 12.23 22.99 12.17L22.99 12.17L22.99 12.17Q22.98 12.11 22.98 12.07L22.98 12.07L22.98 12.07Q22.98 11.93 23.01 11.74L23.01 11.74L23.01 11.74Q23.04 11.55 23.17 11.31L23.17 11.31L23.17 11.31Q23.25 11.13 23.37 10.95L23.37 10.95L23.37 10.95Q23.46 10.79 23.60 10.61L23.60 10.61L23.60 10.61Q23.73 10.43 23.90 10.27L23.90 10.27L23.94 10.23L23.94 10.23Q24.01 10.32 24.12 10.46L24.12 10.46L24.12 10.46Q24.23 10.60 24.35 10.74L24.35 10.74L24.35 10.74Q24.46 10.89 24.54 11.01L24.54 11.01L24.54 11.01Q24.63 11.14 24.65 11.18L24.65 11.18L24.65 11.18Q24.65 11.48 24.54 11.77L24.54 11.77L24.54 11.77Q24.44 12.07 24.26 12.35L24.26 12.35L24.26 12.35Q24.67 12.33 25.02 12.14L25.02 12.14L25.02 12.14Q25.38 11.96 25.76 11.55L25.76 11.55L25.76 11.55Q25.82 11.61 25.92 11.72L25.92 11.72L25.92 11.72Q26.02 11.83 26.08 11.90L26.08 11.90L26.08 11.90Q25.79 12.20 25.52 12.40L25.52 12.40L25.52 12.40Q25.24 12.60 24.96 12.71L24.96 12.71L24.96 12.71Q24.68 12.83 24.40 12.88L24.40 12.88L24.40 12.88Q24.11 12.93 23.81 12.93L23.81 12.93L23.81 12.93Q23.58 13.18 23.31 13.38L23.31 13.38L23.31 13.38Q23.04 13.59 22.77 13.74L22.77 13.74L22.77 13.74Q22.49 13.89 22.22 13.97L22.22 13.97L22.22 13.97Q21.94 14.05 21.70 14.05L21.70 14.05L21.70 14.05Q21.49 14.05 21.27 13.93L21.27 13.93L21.27 13.93Q21.05 13.81 20.88 13.63L20.88 13.63L20.88 13.63Q20.70 13.45 20.58 13.24L20.58 13.24L20.58 13.24Q20.47 13.04 20.47 12.88L20.47 12.88L20.47 12.88Q20.47 12.36 20.61 11.85L20.61 11.85L20.61 11.85Q20.75 11.33 21.04 10.89L21.04 10.89L21.04 10.89Q21.34 10.44 21.80 10.10L21.80 10.10L21.80 10.10Q22.26 9.75 22.90 9.58L22.90 9.58L22.90 9.58Q22.92 9.56 22.97 9.56L22.97 9.56L22.97 9.56Q23.02 9.55 23.06 9.55L23.06 9.55L23.06 9.55Q23.15 9.55 23.26 9.62L23.26 9.62L23.26 9.62Q23.37 9.69 23.46 9.78L23.46 9.78L23.46 9.78Q23.55 9.87 23.61 9.96L23.61 9.96L23.61 9.96Q23.67 10.04 23.67 10.07L23.67 10.07L23.67 10.07Q23.66 10.10 23.57 10.15L23.57 10.15L23.57 10.15Q23.48 10.21 23.33 10.33L23.33 10.33L23.33 10.33Q23.18 10.45 22.98 10.68L22.98 10.68L22.98 10.68Q22.77 10.91 22.52 11.29L22.52 11.29L22.52 11.29Q22.16 11.84 22.03 12.29L22.03 12.29L22.03 12.29Q21.90 12.74 21.90 12.98ZM25.53 11.79L25.53 11.79L25.53 11.79Q25.69 11.64 25.89 11.45L25.89 11.45L25.89 11.45Q26.09 11.26 26.29 11.03L26.29 11.03L26.29 11.03Q26.50 10.81 26.67 10.55L26.67 10.55L26.67 10.55Q26.84 10.29 26.95 9.99L26.95 9.99L26.95 9.99Q26.97 9.83 27.03 9.66L27.03 9.66L27.03 9.66Q27.09 9.48 27.16 9.34L27.16 9.34L27.16 9.34Q27.23 9.19 27.30 9.10L27.30 9.10L27.30 9.10Q27.37 9.00 27.43 9.00L27.43 9.00L27.43 9.00Q27.51 9.05 27.67 9.18L27.67 9.18L27.67 9.18Q27.84 9.32 28 9.47L28 9.47L28 9.47Q28.16 9.62 28.29 9.74L28.29 9.74L28.29 9.74Q28.42 9.87 28.42 9.90L28.42 9.90L28.42 9.90Q28.33 10.21 28.34 10.47L28.34 10.47L28.34 10.47Q28.34 10.72 28.38 10.96L28.38 10.96L28.38 10.96Q28.42 11.21 28.46 11.49L28.46 11.49L28.46 11.49Q28.51 11.76 28.51 12.13L28.51 12.13L28.51 12.13Q28.51 12.35 28.43 12.63L28.43 12.63L28.43 12.63Q28.36 12.91 28.18 13.14L28.18 13.14L28.18 13.14Q28.53 12.93 28.88 12.68L28.88 12.68L28.88 12.68Q29.22 12.42 29.48 12.20L29.48 12.20L29.48 12.20Q29.80 11.93 30.08 11.66L30.08 11.66L30.39 12.00L30.39 12.00Q30.17 12.21 29.90 12.45L29.90 12.45L29.90 12.45Q29.64 12.69 29.36 12.92L29.36 12.92L29.36 12.92Q29.07 13.15 28.78 13.36L28.78 13.36L28.78 13.36Q28.49 13.58 28.20 13.74L28.20 13.74L28.20 13.74Q27.91 13.90 27.64 14L27.64 14L27.64 14Q27.38 14.10 27.15 14.10L27.15 14.10L27.15 14.10Q26.95 14.10 26.71 14L26.71 14L26.71 14Q26.47 13.90 26.26 13.77L26.26 13.77L26.26 13.77Q26.04 13.63 25.89 13.48L25.89 13.48L25.89 13.48Q25.73 13.33 25.70 13.23L25.70 13.23L25.70 13.23Q25.70 13.21 25.73 13.17L25.73 13.17L25.73 13.17Q25.76 13.13 25.80 13.08L25.80 13.08L25.80 13.08Q25.83 13.03 25.87 12.99L25.87 12.99L25.87 12.99Q25.91 12.95 25.93 12.95L25.93 12.95L25.93 12.95Q25.97 12.95 26.09 13.02L26.09 13.02L26.09 13.02Q26.22 13.08 26.50 13.08L26.50 13.08L26.50 13.08Q26.66 13.08 26.77 13.00L26.77 13.00L26.77 13.00Q26.89 12.91 26.96 12.78L26.96 12.78L26.96 12.78Q27.04 12.64 27.07 12.46L27.07 12.46L27.07 12.46Q27.10 12.28 27.10 12.09L27.10 12.09L27.10 12.09Q27.10 11.80 27.08 11.53L27.08 11.53L27.08 11.53Q27.05 11.26 27.02 11.01L27.02 11.01L27.02 11.01Q26.90 11.14 26.75 11.29L26.75 11.29L26.75 11.29Q26.60 11.44 26.44 11.59L26.44 11.59L26.44 11.59Q26.29 11.74 26.14 11.88L26.14 11.88L26.14 11.88Q25.98 12.02 25.86 12.13L25.86 12.13L25.53 11.79ZM30.66 14.18L30.66 14.18L30.66 14.18Q30.54 14.18 30.38 14.11L30.38 14.11L30.38 14.11Q30.22 14.03 30.06 13.89L30.06 13.89L30.06 13.89Q29.89 13.76 29.74 13.58L29.74 13.58L29.74 13.58Q29.59 13.40 29.48 13.20L29.48 13.20L29.48 13.20Q29.44 13.13 29.43 13.03L29.43 13.03L29.43 13.03Q29.42 12.93 29.42 12.78L29.42 12.78L29.42 12.78Q29.42 12.39 29.53 12.00L29.53 12.00L29.53 12.00Q29.65 11.61 29.87 11.25L29.87 11.25L29.87 11.25Q30.08 10.90 30.38 10.59L30.38 10.59L30.38 10.59Q30.67 10.27 31.02 10.05L31.02 10.05L31.02 10.05Q31.37 9.82 31.77 9.69L31.77 9.69L31.77 9.69Q32.16 9.56 32.57 9.56L32.57 9.56L32.57 9.56Q32.63 9.56 32.74 9.63L32.74 9.63L32.74 9.63Q32.85 9.69 32.97 9.80L32.97 9.80L32.97 9.80Q33.09 9.91 33.22 10.05L33.22 10.05L33.22 10.05Q33.35 10.19 33.45 10.33L33.45 10.33L33.45 10.33Q33.55 10.47 33.62 10.60L33.62 10.60L33.62 10.60Q33.68 10.73 33.68 10.83L33.68 10.83L33.68 10.83Q33.65 10.96 33.47 11.12L33.47 11.12L33.47 11.12Q33.29 11.27 33.05 11.41L33.05 11.41L33.05 11.41Q32.81 11.54 32.54 11.63L32.54 11.63L32.54 11.63Q32.27 11.72 32.07 11.72L32.07 11.72L32.07 11.72Q31.96 11.72 31.96 11.65L31.96 11.65L31.96 11.65Q31.96 11.57 32.06 11.43L32.06 11.43L32.06 11.43Q32.16 11.28 32.29 11.10L32.29 11.10L32.29 11.10Q32.42 10.93 32.52 10.76L32.52 10.76L32.52 10.76Q32.62 10.58 32.62 10.46L32.62 10.46L32.62 10.46Q32.62 10.40 32.59 10.36L32.59 10.36L32.59 10.36Q32.56 10.32 32.50 10.32L32.50 10.32L32.50 10.32Q32.35 10.32 32.19 10.45L32.19 10.45L32.19 10.45Q32.03 10.59 31.86 10.81L31.86 10.81L31.86 10.81Q31.70 11.04 31.55 11.33L31.55 11.33L31.55 11.33Q31.40 11.62 31.28 11.93L31.28 11.93L31.28 11.93Q31.17 12.24 31.10 12.54L31.10 12.54L31.10 12.54Q31.04 12.85 31.04 13.10L31.04 13.10L31.04 13.10Q31.04 13.25 31.12 13.31L31.12 13.31L31.12 13.31Q31.21 13.37 31.40 13.37L31.40 13.37L31.40 13.37Q31.86 13.37 32.28 13.22L32.28 13.22L32.28 13.22Q32.71 13.06 33.10 12.82L33.10 12.82L33.10 12.82Q33.50 12.58 33.85 12.28L33.85 12.28L33.85 12.28Q34.21 11.98 34.52 11.68L34.52 11.68L34.52 11.68Q34.60 11.76 34.71 11.85L34.71 11.85L34.71 11.85Q34.82 11.94 34.87 12.00L34.87 12.00L34.87 12.00Q34.45 12.44 33.97 12.84L33.97 12.84L33.97 12.84Q33.50 13.24 32.97 13.54L32.97 13.54L32.97 13.54Q32.44 13.84 31.87 14.01L31.87 14.01L31.87 14.01Q31.29 14.18 30.66 14.18ZM37.63 10.85L37.63 10.85L37.63 10.85Q37.54 11.12 37.41 11.46L37.41 11.46L37.41 11.46Q37.28 11.80 37.15 12.13L37.15 12.13L37.15 12.13Q37.03 12.46 36.94 12.72L36.94 12.72L36.94 12.72Q36.86 12.99 36.86 13.10L36.86 13.10L36.86 13.10Q36.86 13.15 36.90 13.15L36.90 13.15L36.90 13.15Q36.98 13.15 37.13 13.06L37.13 13.06L37.13 13.06Q37.28 12.97 37.47 12.82L37.47 12.82L37.47 12.82Q37.67 12.68 37.88 12.51L37.88 12.51L37.88 12.51Q38.09 12.34 38.28 12.17L38.28 12.17L38.28 12.17Q38.48 12.00 38.64 11.87L38.64 11.87L38.64 11.87Q38.79 11.73 38.88 11.66L38.88 11.66L38.88 11.66Q38.94 11.72 39.02 11.82L39.02 11.82L39.02 11.82Q39.11 11.92 39.18 12.00L39.18 12.00L39.18 12.00Q39.03 12.15 38.81 12.36L38.81 12.36L38.81 12.36Q38.58 12.58 38.32 12.80L38.32 12.80L38.32 12.80Q38.06 13.03 37.77 13.25L37.77 13.25L37.77 13.25Q37.49 13.48 37.22 13.66L37.22 13.66L37.22 13.66Q36.95 13.84 36.72 13.95L36.72 13.95L36.72 13.95Q36.48 14.05 36.33 14.05L36.33 14.05L36.33 14.05Q36.22 14.05 36.07 13.98L36.07 13.98L36.07 13.98Q35.91 13.91 35.77 13.81L35.77 13.81L35.77 13.81Q35.62 13.70 35.52 13.57L35.52 13.57L35.52 13.57Q35.42 13.44 35.42 13.32L35.42 13.32L35.42 13.32Q35.52 12.86 35.62 12.52L35.62 12.52L35.62 12.52Q35.72 12.17 35.81 11.93L35.81 11.93L35.81 11.93Q35.90 11.69 35.97 11.54L35.97 11.54L35.97 11.54Q36.04 11.39 36.07 11.31L36.07 11.31L36.07 11.31Q35.99 11.28 35.92 11.24L35.92 11.24L35.92 11.24Q35.84 11.20 35.77 11.16L35.77 11.16L35.77 11.16Q35.66 11.27 35.52 11.40L35.52 11.40L35.52 11.40Q35.39 11.53 35.25 11.66L35.25 11.66L35.25 11.66Q35.12 11.79 34.98 11.92L34.98 11.92L34.98 11.92Q34.84 12.04 34.73 12.14L34.73 12.14L34.41 11.81L34.41 11.81Q34.58 11.63 34.83 11.39L34.83 11.39L34.83 11.39Q35.08 11.15 35.32 10.90L35.32 10.90L35.32 10.90Q35.15 10.80 35.01 10.71L35.01 10.71L35.01 10.71Q34.88 10.62 34.78 10.54L34.78 10.54L34.78 10.54Q34.67 10.46 34.58 10.39L34.58 10.39L34.58 10.39Q34.54 10.37 34.54 10.30L34.54 10.30L34.54 10.30Q34.54 10.23 34.59 10.09L34.59 10.09L34.59 10.09Q34.65 9.95 34.74 9.79L34.74 9.79L34.74 9.79Q34.83 9.63 34.93 9.46L34.93 9.46L34.93 9.46Q35.03 9.29 35.13 9.15L35.13 9.15L35.13 9.15Q35.23 9.02 35.30 8.93L35.30 8.93L35.30 8.93Q35.37 8.85 35.39 8.85L35.39 8.85L35.39 8.85Q35.40 8.85 35.48 8.88L35.48 8.88L35.48 8.88Q35.56 8.91 35.65 8.96L35.65 8.96L35.65 8.96Q35.74 9.00 35.81 9.06L35.81 9.06L35.81 9.06Q35.89 9.11 35.91 9.15L35.91 9.15L35.91 9.15Q35.92 9.19 35.92 9.30L35.92 9.30L35.92 9.30Q35.93 9.41 35.94 9.56L35.94 9.56L35.94 9.56Q36.20 9.70 36.48 9.87L36.48 9.87L36.48 9.87Q36.76 10.05 37.00 10.21L37.00 10.21L37.00 10.21Q37.27 10.38 37.52 10.57L37.52 10.57L37.52 10.57Q37.60 10.62 37.63 10.71L37.63 10.71L37.63 10.71Q37.65 10.79 37.63 10.85ZM39.31 14.05L39.31 14.05L39.31 14.05Q39.20 14.05 39.05 13.98L39.05 13.98L39.05 13.98Q38.89 13.91 38.75 13.81L38.75 13.81L38.75 13.81Q38.60 13.70 38.50 13.57L38.50 13.57L38.50 13.57Q38.40 13.44 38.40 13.32L38.40 13.32L38.40 13.32Q38.47 13.02 38.58 12.63L38.58 12.63L38.58 12.63Q38.70 12.24 38.83 11.83L38.83 11.83L38.83 11.83Q38.96 11.43 39.11 11.04L39.11 11.04L39.11 11.04Q39.26 10.66 39.38 10.36L39.38 10.36L39.38 10.36Q39.50 10.06 39.59 9.87L39.59 9.87L39.59 9.87Q39.68 9.69 39.70 9.69L39.70 9.69L39.70 9.69Q39.74 9.69 39.91 9.78L39.91 9.78L39.91 9.78Q40.07 9.86 40.25 9.99L40.25 9.99L40.25 9.99Q40.43 10.12 40.58 10.26L40.58 10.26L40.58 10.26Q40.72 10.40 40.72 10.50L40.72 10.50L40.72 10.50Q40.72 10.52 40.71 10.55L40.71 10.55L40.71 10.55Q40.71 10.58 40.69 10.63L40.69 10.63L40.69 10.63Q40.64 10.80 40.55 11.03L40.55 11.03L40.55 11.03Q40.47 11.27 40.37 11.52L40.37 11.52L40.37 11.52Q40.28 11.76 40.18 12.01L40.18 12.01L40.18 12.01Q40.09 12.26 40.01 12.48L40.01 12.48L40.01 12.48Q39.94 12.70 39.89 12.87L39.89 12.87L39.89 12.87Q39.84 13.03 39.84 13.10L39.84 13.10L39.84 13.10Q39.84 13.15 39.88 13.15L39.88 13.15L39.88 13.15Q39.96 13.15 40.11 13.06L40.11 13.06L40.11 13.06Q40.26 12.97 40.45 12.82L40.45 12.82L40.45 12.82Q40.65 12.68 40.86 12.51L40.86 12.51L40.86 12.51Q41.07 12.34 41.27 12.17L41.27 12.17L41.27 12.17Q41.46 12.00 41.62 11.87L41.62 11.87L41.62 11.87Q41.77 11.73 41.86 11.66L41.86 11.66L41.86 11.66Q41.92 11.72 42.00 11.82L42.00 11.82L42.00 11.82Q42.09 11.92 42.16 12.00L42.16 12.00L42.16 12.00Q42.01 12.15 41.79 12.36L41.79 12.36L41.79 12.36Q41.56 12.58 41.30 12.80L41.30 12.80L41.30 12.80Q41.04 13.03 40.75 13.25L40.75 13.25L40.75 13.25Q40.47 13.48 40.20 13.66L40.20 13.66L40.20 13.66Q39.94 13.84 39.70 13.95L39.70 13.95L39.70 13.95Q39.47 14.05 39.31 14.05ZM42.01 7.60L42.01 7.60L42.01 7.60Q42.01 7.63 41.96 7.73L41.96 7.73L41.96 7.73Q41.92 7.84 41.86 7.98L41.86 7.98L41.86 7.98Q41.79 8.12 41.72 8.27L41.72 8.27L41.72 8.27Q41.64 8.43 41.56 8.56L41.56 8.56L41.56 8.56Q41.49 8.69 41.42 8.77L41.42 8.77L41.42 8.77Q41.35 8.86 41.31 8.86L41.31 8.86L41.31 8.86Q41.19 8.85 41.01 8.78L41.01 8.78L41.01 8.78Q40.84 8.72 40.68 8.63L40.68 8.63L40.68 8.63Q40.52 8.54 40.40 8.46L40.40 8.46L40.40 8.46Q40.29 8.38 40.29 8.35L40.29 8.35L40.29 8.35Q40.29 8.20 40.37 7.97L40.37 7.97L40.37 7.97Q40.46 7.75 40.56 7.53L40.56 7.53L40.56 7.53Q40.67 7.31 40.79 7.16L40.79 7.16L40.79 7.16Q40.90 7 40.96 7L40.96 7L40.96 7Q41.08 7 41.26 7.08L41.26 7.08L41.26 7.08Q41.44 7.16 41.61 7.26L41.61 7.26L41.61 7.26Q41.77 7.36 41.89 7.46L41.89 7.46L41.89 7.46Q42.01 7.56 42.01 7.60ZM42.46 14.05L42.46 14.05L42.46 14.05Q42.34 14.05 42.15 13.95L42.15 13.95L42.15 13.95Q41.97 13.84 41.79 13.69L41.79 13.69L41.79 13.69Q41.61 13.54 41.48 13.37L41.48 13.37L41.48 13.37Q41.35 13.21 41.35 13.09L41.35 13.09L41.35 13.09Q41.35 12.89 41.46 12.44L41.46 12.44L41.46 12.44Q41.58 12.00 41.76 11.43L41.76 11.43L41.76 11.43Q41.95 10.86 42.18 10.21L42.18 10.21L42.18 10.21Q42.42 9.56 42.66 8.93L42.66 8.93L41.69 8.93L41.69 8.93L41.69 8.93Q41.68 8.93 41.68 8.92L41.68 8.92L41.68 8.92Q41.68 8.88 41.71 8.80L41.71 8.80L41.71 8.80Q41.74 8.72 41.78 8.64L41.78 8.64L41.78 8.64Q41.83 8.55 41.89 8.48L41.89 8.48L41.89 8.48Q41.95 8.41 42 8.39L42 8.39L42.89 8.35L42.89 8.35Q43.08 7.88 43.25 7.49L43.25 7.49L43.25 7.49Q43.43 7.10 43.57 6.82L43.57 6.82L43.57 6.82Q43.60 6.74 43.64 6.65L43.64 6.65L43.64 6.65Q43.67 6.57 43.75 6.48L43.75 6.48L43.75 6.48Q43.82 6.40 43.94 6.31L43.94 6.31L43.94 6.31Q44.06 6.21 44.26 6.12L44.26 6.12L44.26 6.12Q44.41 6.04 44.63 5.95L44.63 5.95L44.63 5.95Q44.84 5.87 45.05 5.79L45.05 5.79L45.05 5.79Q45.26 5.71 45.43 5.66L45.43 5.66L45.43 5.66Q45.60 5.61 45.68 5.61L45.68 5.61L45.68 5.61Q45.75 5.61 45.75 5.64L45.75 5.64L45.75 5.65L45.75 5.65Q45.75 5.66 45.73 5.69L45.73 5.69L45.73 5.69Q45.69 5.76 45.58 5.98L45.58 5.98L45.58 5.98Q45.47 6.21 45.31 6.56L45.31 6.56L45.31 6.56Q45.15 6.90 44.96 7.35L44.96 7.35L44.96 7.35Q44.76 7.79 44.56 8.28L44.56 8.28L46.20 8.22L46.20 8.22Q46.27 8.22 46.24 8.30L46.24 8.30L46.24 8.30Q46.21 8.38 46.14 8.49L46.14 8.49L46.14 8.49Q46.06 8.60 45.96 8.72L45.96 8.72L45.96 8.72Q45.86 8.83 45.79 8.89L45.79 8.89L45.79 8.89Q45.78 8.91 45.74 8.92L45.74 8.92L45.74 8.92Q45.70 8.93 45.64 8.93L45.64 8.93L44.28 8.93L44.28 8.93Q44.04 9.53 43.81 10.14L43.81 10.14L43.81 10.14Q43.59 10.75 43.41 11.29L43.41 11.29L43.41 11.29Q43.23 11.84 43.12 12.30L43.12 12.30L43.12 12.30Q43.02 12.76 43.02 13.05L43.02 13.05L43.02 13.05Q43.02 13.09 43.06 13.09L43.06 13.09L43.06 13.09Q43.13 13.09 43.29 13.01L43.29 13.01L43.29 13.01Q43.44 12.92 43.62 12.78L43.62 12.78L43.62 12.78Q43.81 12.65 44.02 12.48L44.02 12.48L44.02 12.48Q44.24 12.32 44.43 12.16L44.43 12.16L44.43 12.16Q44.62 12.00 44.77 11.86L44.77 11.86L44.77 11.86Q44.93 11.73 45.01 11.66L45.01 11.66L45.01 11.66Q45.07 11.72 45.15 11.82L45.15 11.82L45.15 11.82Q45.24 11.92 45.32 12.00L45.32 12.00L45.32 12.00Q45.17 12.15 44.94 12.36L44.94 12.36L44.94 12.36Q44.71 12.58 44.45 12.80L44.45 12.80L44.45 12.80Q44.19 13.03 43.90 13.25L43.90 13.25L43.90 13.25Q43.62 13.48 43.35 13.66L43.35 13.66L43.35 13.66Q43.08 13.84 42.85 13.95L42.85 13.95L42.85 13.95Q42.62 14.05 42.46 14.05ZM45.66 14.05L45.66 14.05L45.66 14.05Q45.55 14.05 45.36 13.95L45.36 13.95L45.36 13.95Q45.17 13.84 44.99 13.69L44.99 13.69L44.99 13.69Q44.82 13.54 44.69 13.37L44.69 13.37L44.69 13.37Q44.56 13.21 44.56 13.09L44.56 13.09L44.56 13.09Q44.56 12.89 44.67 12.44L44.67 12.44L44.67 12.44Q44.78 12.00 44.97 11.43L44.97 11.43L44.97 11.43Q45.15 10.86 45.39 10.21L45.39 10.21L45.39 10.21Q45.62 9.56 45.86 8.93L45.86 8.93L44.90 8.93L44.89 8.93L44.89 8.93Q44.88 8.93 44.88 8.92L44.88 8.92L44.88 8.92Q44.88 8.88 44.92 8.80L44.92 8.80L44.92 8.80Q44.95 8.72 44.99 8.64L44.99 8.64L44.99 8.64Q45.04 8.55 45.09 8.48L45.09 8.48L45.09 8.48Q45.15 8.41 45.21 8.39L45.21 8.39L46.09 8.35L46.09 8.35Q46.29 7.88 46.46 7.49L46.46 7.49L46.46 7.49Q46.63 7.10 46.77 6.82L46.77 6.82L46.77 6.82Q46.81 6.74 46.84 6.65L46.84 6.65L46.84 6.65Q46.88 6.57 46.95 6.48L46.95 6.48L46.95 6.48Q47.02 6.40 47.14 6.31L47.14 6.31L47.14 6.31Q47.26 6.21 47.47 6.12L47.47 6.12L47.47 6.12Q47.62 6.04 47.83 5.95L47.83 5.95L47.83 5.95Q48.05 5.87 48.26 5.79L48.26 5.79L48.26 5.79Q48.47 5.71 48.64 5.66L48.64 5.66L48.64 5.66Q48.81 5.61 48.88 5.61L48.88 5.61L48.88 5.61Q48.95 5.61 48.95 5.64L48.95 5.64L48.95 5.65L48.95 5.65Q48.95 5.66 48.94 5.69L48.94 5.69L48.94 5.69Q48.90 5.76 48.79 5.98L48.79 5.98L48.79 5.98Q48.68 6.21 48.52 6.56L48.52 6.56L48.52 6.56Q48.36 6.90 48.16 7.35L48.16 7.35L48.16 7.35Q47.97 7.79 47.76 8.28L47.76 8.28L49.40 8.22L49.40 8.22Q49.47 8.22 49.44 8.30L49.44 8.30L49.44 8.30Q49.42 8.38 49.34 8.49L49.34 8.49L49.34 8.49Q49.27 8.60 49.17 8.72L49.17 8.72L49.17 8.72Q49.07 8.83 49 8.89L49 8.89L49 8.89Q48.99 8.91 48.95 8.92L48.95 8.92L48.95 8.92Q48.90 8.93 48.84 8.93L48.84 8.93L47.49 8.93L47.49 8.93Q47.24 9.53 47.02 10.14L47.02 10.14L47.02 10.14Q46.79 10.75 46.61 11.29L46.61 11.29L46.61 11.29Q46.44 11.84 46.33 12.30L46.33 12.30L46.33 12.30Q46.22 12.76 46.22 13.05L46.22 13.05L46.22 13.05Q46.22 13.09 46.27 13.09L46.27 13.09L46.27 13.09Q46.34 13.09 46.49 13.01L46.49 13.01L46.49 13.01Q46.64 12.92 46.83 12.78L46.83 12.78L46.83 12.78Q47.02 12.65 47.23 12.48L47.23 12.48L47.23 12.48Q47.44 12.32 47.63 12.16L47.63 12.16L47.63 12.16Q47.82 12.00 47.98 11.86L47.98 11.86L47.98 11.86Q48.13 11.73 48.21 11.66L48.21 11.66L48.21 11.66Q48.28 11.72 48.36 11.82L48.36 11.82L48.36 11.82Q48.45 11.92 48.52 12.00L48.52 12.00L48.52 12.00Q48.37 12.15 48.15 12.36L48.15 12.36L48.15 12.36Q47.92 12.58 47.66 12.80L47.66 12.80L47.66 12.80Q47.39 13.03 47.11 13.25L47.11 13.25L47.11 13.25Q46.83 13.48 46.56 13.66L46.56 13.66L46.56 13.66Q46.29 13.84 46.05 13.95L46.05 13.95L46.05 13.95Q45.82 14.05 45.66 14.05ZM48.64 14.05L48.64 14.05L48.64 14.05Q48.54 14.05 48.38 13.98L48.38 13.98L48.38 13.98Q48.23 13.91 48.08 13.81L48.08 13.81L48.08 13.81Q47.94 13.70 47.84 13.57L47.84 13.57L47.84 13.57Q47.74 13.44 47.74 13.32L47.74 13.32L47.74 13.32Q47.80 13.02 47.92 12.63L47.92 12.63L47.92 12.63Q48.04 12.24 48.17 11.83L48.17 11.83L48.17 11.83Q48.30 11.43 48.45 11.04L48.45 11.04L48.45 11.04Q48.60 10.66 48.72 10.36L48.72 10.36L48.72 10.36Q48.84 10.06 48.92 9.87L48.92 9.87L48.92 9.87Q49.01 9.69 49.04 9.69L49.04 9.69L49.04 9.69Q49.08 9.69 49.25 9.78L49.25 9.78L49.25 9.78Q49.41 9.86 49.59 9.99L49.59 9.99L49.59 9.99Q49.77 10.12 49.92 10.26L49.92 10.26L49.92 10.26Q50.06 10.40 50.06 10.50L50.06 10.50L50.06 10.50Q50.06 10.52 50.05 10.55L50.05 10.55L50.05 10.55Q50.05 10.58 50.03 10.63L50.03 10.63L50.03 10.63Q49.98 10.80 49.89 11.03L49.89 11.03L49.89 11.03Q49.81 11.27 49.71 11.52L49.71 11.52L49.71 11.52Q49.62 11.76 49.52 12.01L49.52 12.01L49.52 12.01Q49.42 12.26 49.35 12.48L49.35 12.48L49.35 12.48Q49.27 12.70 49.23 12.87L49.23 12.87L49.23 12.87Q49.18 13.03 49.18 13.10L49.18 13.10L49.18 13.10Q49.18 13.15 49.22 13.15L49.22 13.15L49.22 13.15Q49.29 13.15 49.44 13.06L49.44 13.06L49.44 13.06Q49.59 12.97 49.79 12.82L49.79 12.82L49.79 12.82Q49.98 12.68 50.20 12.51L50.20 12.51L50.20 12.51Q50.41 12.34 50.60 12.17L50.60 12.17L50.60 12.17Q50.80 12.00 50.96 11.87L50.96 11.87L50.96 11.87Q51.11 11.73 51.19 11.66L51.19 11.66L51.19 11.66Q51.26 11.72 51.34 11.82L51.34 11.82L51.34 11.82Q51.43 11.92 51.50 12.00L51.50 12.00L51.50 12.00Q51.35 12.15 51.13 12.36L51.13 12.36L51.13 12.36Q50.90 12.58 50.64 12.80L50.64 12.80L50.64 12.80Q50.37 13.03 50.09 13.25L50.09 13.25L50.09 13.25Q49.81 13.48 49.54 13.66L49.54 13.66L49.54 13.66Q49.27 13.84 49.04 13.95L49.04 13.95L49.04 13.95Q48.81 14.05 48.64 14.05ZM51.35 7.60L51.35 7.60L51.35 7.60Q51.34 7.63 51.30 7.73L51.30 7.73L51.30 7.73Q51.26 7.84 51.19 7.98L51.19 7.98L51.19 7.98Q51.13 8.12 51.05 8.27L51.05 8.27L51.05 8.27Q50.98 8.43 50.90 8.56L50.90 8.56L50.90 8.56Q50.83 8.69 50.76 8.77L50.76 8.77L50.76 8.77Q50.69 8.86 50.65 8.86L50.65 8.86L50.65 8.86Q50.52 8.85 50.35 8.78L50.35 8.78L50.35 8.78Q50.18 8.72 50.02 8.63L50.02 8.63L50.02 8.63Q49.85 8.54 49.74 8.46L49.74 8.46L49.74 8.46Q49.63 8.38 49.63 8.35L49.63 8.35L49.63 8.35Q49.63 8.20 49.71 7.97L49.71 7.97L49.71 7.97Q49.79 7.75 49.90 7.53L49.90 7.53L49.90 7.53Q50.01 7.31 50.12 7.16L50.12 7.16L50.12 7.16Q50.24 7 50.30 7L50.30 7L50.30 7Q50.42 7 50.60 7.08L50.60 7.08L50.60 7.08Q50.78 7.16 50.94 7.26L50.94 7.26L50.94 7.26Q51.11 7.36 51.23 7.46L51.23 7.46L51.23 7.46Q51.35 7.56 51.35 7.60ZM63.43 4.94L63.43 4.94L63.43 4.94Q63.43 5.26 63.30 5.66L63.30 5.66L63.30 5.66Q63.16 6.05 62.95 6.46L62.95 6.46L62.95 6.46Q62.73 6.88 62.45 7.29L62.45 7.29L62.45 7.29Q62.17 7.71 61.87 8.08L61.87 8.08L61.87 8.08Q62.05 8.26 62.19 8.40L62.19 8.40L62.19 8.40Q62.34 8.55 62.40 8.60L62.40 8.60L62.40 8.60Q62.30 8.76 62.14 9.08L62.14 9.08L62.14 9.08Q61.97 9.40 61.78 9.80L61.78 9.80L61.78 9.80Q61.59 10.21 61.40 10.66L61.40 10.66L61.40 10.66Q61.20 11.11 61.04 11.54L61.04 11.54L61.04 11.54Q60.89 11.98 60.79 12.36L60.79 12.36L60.79 12.36Q60.69 12.75 60.69 13.01L60.69 13.01L60.69 13.01Q60.69 13.35 60.78 13.64L60.78 13.64L60.78 13.64Q60.87 13.94 61.06 14.16L61.06 14.16L61.06 14.16Q61.24 14.38 61.51 14.53L61.51 14.53L61.51 14.53Q61.78 14.68 62.13 14.72L62.13 14.72L61.80 15.16L61.80 15.16Q61.71 15.16 61.54 15.12L61.54 15.12L61.54 15.12Q61.37 15.09 61.16 14.99L61.16 14.99L61.16 14.99Q60.95 14.90 60.72 14.75L60.72 14.75L60.72 14.75Q60.48 14.59 60.28 14.35L60.28 14.35L60.28 14.35Q60.07 14.10 59.92 13.76L59.92 13.76L59.92 13.76Q59.76 13.43 59.70 12.97L59.70 12.97L59.70 12.97Q59.37 13.31 58.99 13.64L58.99 13.64L58.99 13.64Q58.61 13.98 58.21 14.25L58.21 14.25L58.21 14.25Q57.80 14.51 57.39 14.68L57.39 14.68L57.39 14.68Q56.98 14.84 56.59 14.84L56.59 14.84L56.59 14.84Q56.36 14.84 56.13 14.72L56.13 14.72L56.13 14.72Q55.89 14.59 55.66 14.39L55.66 14.39L55.66 14.39Q55.43 14.19 55.22 13.92L55.22 13.92L55.22 13.92Q55.02 13.66 54.85 13.37L54.85 13.37L54.85 13.37Q54.69 13.09 54.59 12.81L54.59 12.81L54.59 12.81Q54.48 12.53 54.46 12.29L54.46 12.29L54.46 12.29Q54.46 12.20 54.47 12.08L54.47 12.08L54.47 12.08Q54.47 11.95 54.48 11.81L54.48 11.81L54.48 11.81Q54.48 11.68 54.49 11.55L54.49 11.55L54.49 11.55Q54.50 11.42 54.52 11.31L54.52 11.31L54.52 11.31Q54.62 10.71 54.84 10.03L54.84 10.03L54.84 10.03Q55.07 9.35 55.40 8.65L55.40 8.65L55.40 8.65Q55.72 7.96 56.13 7.27L56.13 7.27L56.13 7.27Q56.54 6.58 57.02 5.95L57.02 5.95L57.02 5.95Q57.50 5.32 58.03 4.78L58.03 4.78L58.03 4.78Q58.56 4.25 59.13 3.85L59.13 3.85L59.13 3.85Q59.69 3.46 60.28 3.23L60.28 3.23L60.28 3.23Q60.86 3.01 61.44 3.01L61.44 3.01L61.44 3.01Q61.64 3.01 61.87 3.11L61.87 3.11L61.87 3.11Q62.09 3.21 62.31 3.38L62.31 3.38L62.31 3.38Q62.54 3.54 62.74 3.75L62.74 3.75L62.74 3.75Q62.94 3.96 63.09 4.17L63.09 4.17L63.09 4.17Q63.25 4.39 63.34 4.59L63.34 4.59L63.34 4.59Q63.43 4.79 63.43 4.94ZM56.31 13.65L56.31 13.65L56.31 13.65Q56.44 13.65 56.69 13.50L56.69 13.50L56.69 13.50Q56.94 13.35 57.27 13.07L57.27 13.07L57.27 13.07Q57.60 12.79 57.99 12.38L57.99 12.38L57.99 12.38Q58.38 11.97 58.78 11.45L58.78 11.45L58.78 11.45Q59.17 10.94 59.56 10.32L59.56 10.32L59.56 10.32Q59.94 9.70 60.28 9.00L60.28 9.00L59.47 8.19L59.47 8.19Q59.59 8.07 59.83 7.86L59.83 7.86L59.83 7.86Q60.08 7.66 60.38 7.38L60.38 7.38L60.38 7.38Q60.68 7.10 61.00 6.75L61.00 6.75L61.00 6.75Q61.32 6.41 61.58 6.01L61.58 6.01L61.58 6.01Q61.84 5.61 62.02 5.16L62.02 5.16L62.02 5.16Q62.19 4.72 62.19 4.25L62.19 4.25L62.19 4.25Q62.19 3.98 62.08 3.84L62.08 3.84L62.08 3.84Q61.97 3.70 61.89 3.70L61.89 3.70L61.89 3.70Q61.49 3.70 61.01 3.99L61.01 3.99L61.01 3.99Q60.54 4.28 60.04 4.77L60.04 4.77L60.04 4.77Q59.54 5.27 59.04 5.93L59.04 5.93L59.04 5.93Q58.54 6.60 58.07 7.35L58.07 7.35L58.07 7.35Q57.61 8.10 57.21 8.89L57.21 8.89L57.21 8.89Q56.81 9.69 56.52 10.45L56.52 10.45L56.52 10.45Q56.23 11.20 56.05 11.89L56.05 11.89L56.05 11.89Q55.88 12.57 55.88 13.09L55.88 13.09L55.88 13.09Q55.88 13.65 56.31 13.65ZM64.76 10.38L64.76 10.38L64.76 10.38Q64.68 10.60 64.60 10.82L64.60 10.82L64.60 10.82Q64.52 11.05 64.44 11.29L64.44 11.29L64.44 11.29Q64.87 10.79 65.18 10.48L65.18 10.48L65.18 10.48Q65.49 10.17 65.70 9.99L65.70 9.99L65.70 9.99Q65.92 9.82 66.05 9.75L66.05 9.75L66.05 9.75Q66.19 9.69 66.26 9.69L66.26 9.69L66.26 9.69Q66.35 9.69 66.53 9.78L66.53 9.78L66.53 9.78Q66.71 9.86 66.89 9.99L66.89 9.99L66.89 9.99Q67.07 10.12 67.20 10.26L67.20 10.26L67.20 10.26Q67.33 10.40 67.33 10.50L67.33 10.50L67.33 10.50Q67.33 10.52 67.33 10.55L67.33 10.55L67.33 10.55Q67.32 10.58 67.31 10.63L67.31 10.63L67.31 10.63Q67.25 10.80 67.17 11.03L67.17 11.03L67.17 11.03Q67.08 11.27 66.99 11.52L66.99 11.52L66.99 11.52Q66.89 11.76 66.79 12.01L66.79 12.01L66.79 12.01Q66.70 12.26 66.62 12.48L66.62 12.48L66.62 12.48Q66.55 12.70 66.50 12.87L66.50 12.87L66.50 12.87Q66.45 13.03 66.45 13.10L66.45 13.10L66.45 13.10Q66.45 13.15 66.49 13.15L66.49 13.15L66.49 13.15Q66.57 13.15 66.72 13.06L66.72 13.06L66.72 13.06Q66.87 12.97 67.06 12.82L67.06 12.82L67.06 12.82Q67.26 12.68 67.47 12.51L67.47 12.51L67.47 12.51Q67.68 12.34 67.88 12.17L67.88 12.17L67.88 12.17Q68.07 12.00 68.23 11.87L68.23 11.87L68.23 11.87Q68.39 11.73 68.47 11.66L68.47 11.66L68.47 11.66Q68.54 11.72 68.62 11.82L68.62 11.82L68.62 11.82Q68.70 11.92 68.78 12.00L68.78 12.00L68.78 12.00Q68.63 12.15 68.40 12.36L68.40 12.36L68.40 12.36Q68.17 12.58 67.91 12.80L67.91 12.80L67.91 12.80Q67.65 13.03 67.36 13.25L67.36 13.25L67.36 13.25Q67.08 13.48 66.81 13.66L66.81 13.66L66.81 13.66Q66.55 13.84 66.32 13.95L66.32 13.95L66.32 13.95Q66.08 14.05 65.93 14.05L65.93 14.05L65.93 14.05Q65.82 14.05 65.67 13.98L65.67 13.98L65.67 13.98Q65.51 13.91 65.36 13.81L65.36 13.81L65.36 13.81Q65.21 13.70 65.11 13.57L65.11 13.57L65.11 13.57Q65.01 13.44 65.01 13.32L65.01 13.32L65.01 13.32Q65.07 13.04 65.18 12.68L65.18 12.68L65.18 12.68Q65.28 12.33 65.41 11.95L65.41 11.95L65.41 11.95Q65.53 11.58 65.66 11.21L65.66 11.21L65.66 11.21Q65.80 10.85 65.92 10.54L65.92 10.54L65.91 10.55L65.91 10.55Q65.78 10.71 65.53 10.97L65.53 10.97L65.53 10.97Q65.29 11.22 64.98 11.62L64.98 11.62L64.98 11.62Q64.67 12.02 64.33 12.59L64.33 12.59L64.33 12.59Q63.99 13.15 63.66 13.92L63.66 13.92L63.66 13.92Q63.62 14.02 63.59 14.08L63.59 14.08L63.59 14.08Q63.55 14.13 63.46 14.13L63.46 14.13L63.46 14.13Q63.34 14.13 63.19 14.06L63.19 14.06L63.19 14.06Q63.05 14 62.89 13.89L62.89 13.89L62.89 13.89Q62.74 13.79 62.59 13.66L62.59 13.66L62.59 13.66Q62.43 13.53 62.31 13.40L62.31 13.40L62.31 13.40Q62.31 13.36 62.35 13.17L62.35 13.17L62.35 13.17Q62.38 12.97 62.45 12.68L62.45 12.68L62.45 12.68Q62.52 12.39 62.62 12.02L62.62 12.02L62.62 12.02Q62.73 11.65 62.86 11.24L62.86 11.24L62.86 11.24Q62.99 10.83 63.14 10.40L63.14 10.40L63.14 10.40Q63.29 9.97 63.47 9.58L63.47 9.58L63.47 9.58Q63.76 9.71 64.11 9.91L64.11 9.91L64.11 9.91Q64.46 10.11 64.76 10.38ZM69.13 14.05L69.13 14.05L69.13 14.05Q69.01 14.05 68.82 13.95L68.82 13.95L68.82 13.95Q68.63 13.84 68.46 13.69L68.46 13.69L68.46 13.69Q68.28 13.54 68.15 13.37L68.15 13.37L68.15 13.37Q68.02 13.21 68.02 13.09L68.02 13.09L68.02 13.09Q68.02 12.89 68.13 12.44L68.13 12.44L68.13 12.44Q68.24 12.00 68.43 11.43L68.43 11.43L68.43 11.43Q68.61 10.86 68.85 10.21L68.85 10.21L68.85 10.21Q69.08 9.56 69.32 8.93L69.32 8.93L68.36 8.93L68.35 8.93L68.35 8.93Q68.35 8.93 68.35 8.92L68.35 8.92L68.35 8.92Q68.35 8.88 68.38 8.80L68.38 8.80L68.38 8.80Q68.41 8.72 68.45 8.64L68.45 8.64L68.45 8.64Q68.50 8.55 68.55 8.48L68.55 8.48L68.55 8.48Q68.61 8.41 68.67 8.39L68.67 8.39L69.56 8.35L69.56 8.35Q69.75 7.88 69.92 7.49L69.92 7.49L69.92 7.49Q70.10 7.10 70.23 6.82L70.23 6.82L70.23 6.82Q70.27 6.74 70.30 6.65L70.30 6.65L70.30 6.65Q70.34 6.57 70.41 6.48L70.41 6.48L70.41 6.48Q70.49 6.40 70.60 6.31L70.60 6.31L70.60 6.31Q70.72 6.21 70.93 6.12L70.93 6.12L70.93 6.12Q71.08 6.04 71.30 5.95L71.30 5.95L71.30 5.95Q71.51 5.87 71.72 5.79L71.72 5.79L71.72 5.79Q71.93 5.71 72.10 5.66L72.10 5.66L72.10 5.66Q72.27 5.61 72.34 5.61L72.34 5.61L72.34 5.61Q72.41 5.61 72.41 5.64L72.41 5.64L72.41 5.65L72.41 5.65Q72.41 5.66 72.40 5.69L72.40 5.69L72.40 5.69Q72.36 5.76 72.25 5.98L72.25 5.98L72.25 5.98Q72.14 6.21 71.98 6.56L71.98 6.56L71.98 6.56Q71.82 6.90 71.62 7.35L71.62 7.35L71.62 7.35Q71.43 7.79 71.22 8.28L71.22 8.28L72.86 8.22L72.86 8.22Q72.93 8.22 72.91 8.30L72.91 8.30L72.91 8.30Q72.88 8.38 72.80 8.49L72.80 8.49L72.80 8.49Q72.73 8.60 72.63 8.72L72.63 8.72L72.63 8.72Q72.53 8.83 72.46 8.89L72.46 8.89L72.46 8.89Q72.45 8.91 72.41 8.92L72.41 8.92L72.41 8.92Q72.37 8.93 72.30 8.93L72.30 8.93L70.95 8.93L70.95 8.93Q70.70 9.53 70.48 10.14L70.48 10.14L70.48 10.14Q70.25 10.75 70.08 11.29L70.08 11.29L70.08 11.29Q69.90 11.84 69.79 12.30L69.79 12.30L69.79 12.30Q69.69 12.76 69.69 13.05L69.69 13.05L69.69 13.05Q69.69 13.09 69.73 13.09L69.73 13.09L69.73 13.09Q69.80 13.09 69.95 13.01L69.95 13.01L69.95 13.01Q70.10 12.92 70.29 12.78L70.29 12.78L70.29 12.78Q70.48 12.65 70.69 12.48L70.69 12.48L70.69 12.48Q70.90 12.32 71.09 12.16L71.09 12.16L71.09 12.16Q71.29 12.00 71.44 11.86L71.44 11.86L71.44 11.86Q71.59 11.73 71.67 11.66L71.67 11.66L71.67 11.66Q71.74 11.72 71.82 11.82L71.82 11.82L71.82 11.82Q71.91 11.92 71.98 12.00L71.98 12.00L71.98 12.00Q71.83 12.15 71.61 12.36L71.61 12.36L71.61 12.36Q71.38 12.58 71.12 12.80L71.12 12.80L71.12 12.80Q70.85 13.03 70.57 13.25L70.57 13.25L70.57 13.25Q70.29 13.48 70.02 13.66L70.02 13.66L70.02 13.66Q69.75 13.84 69.51 13.95L69.51 13.95L69.51 13.95Q69.28 14.05 69.13 14.05ZM72.11 14.05L72.11 14.05L72.11 14.05Q72.00 14.05 71.85 13.98L71.85 13.98L71.85 13.98Q71.69 13.91 71.54 13.81L71.54 13.81L71.54 13.81Q71.40 13.70 71.30 13.57L71.30 13.57L71.30 13.57Q71.20 13.44 71.20 13.32L71.20 13.32L71.20 13.32Q71.26 13.02 71.38 12.63L71.38 12.63L71.38 12.63Q71.50 12.24 71.63 11.83L71.63 11.83L71.63 11.83Q71.76 11.43 71.91 11.04L71.91 11.04L71.91 11.04Q72.06 10.66 72.18 10.36L72.18 10.36L72.18 10.36Q72.30 10.06 72.39 9.87L72.39 9.87L72.39 9.87Q72.47 9.69 72.50 9.69L72.50 9.69L72.50 9.69Q72.54 9.69 72.71 9.78L72.71 9.78L72.71 9.78Q72.87 9.86 73.05 9.99L73.05 9.99L73.05 9.99Q73.23 10.12 73.38 10.26L73.38 10.26L73.38 10.26Q73.52 10.40 73.52 10.50L73.52 10.50L73.52 10.50Q73.52 10.52 73.51 10.55L73.51 10.55L73.51 10.55Q73.51 10.58 73.49 10.63L73.49 10.63L73.49 10.63Q73.44 10.80 73.35 11.03L73.35 11.03L73.35 11.03Q73.27 11.27 73.17 11.52L73.17 11.52L73.17 11.52Q73.08 11.76 72.98 12.01L72.98 12.01L72.98 12.01Q72.88 12.26 72.81 12.48L72.81 12.48L72.81 12.48Q72.73 12.70 72.69 12.87L72.69 12.87L72.69 12.87Q72.64 13.03 72.64 13.10L72.64 13.10L72.64 13.10Q72.64 13.15 72.68 13.15L72.68 13.15L72.68 13.15Q72.75 13.15 72.91 13.06L72.91 13.06L72.91 13.06Q73.06 12.97 73.25 12.82L73.25 12.82L73.25 12.82Q73.45 12.68 73.66 12.51L73.66 12.51L73.66 12.51Q73.87 12.34 74.06 12.17L74.06 12.17L74.06 12.17Q74.26 12.00 74.42 11.87L74.42 11.87L74.42 11.87Q74.57 11.73 74.66 11.66L74.66 11.66L74.66 11.66Q74.72 11.72 74.80 11.82L74.80 11.82L74.80 11.82Q74.89 11.92 74.96 12.00L74.96 12.00L74.96 12.00Q74.81 12.15 74.59 12.36L74.59 12.36L74.59 12.36Q74.36 12.58 74.10 12.80L74.10 12.80L74.10 12.80Q73.83 13.03 73.55 13.25L73.55 13.25L73.55 13.25Q73.27 13.48 73.00 13.66L73.00 13.66L73.00 13.66Q72.73 13.84 72.50 13.95L72.50 13.95L72.50 13.95Q72.27 14.05 72.11 14.05ZM74.81 7.60L74.81 7.60L74.81 7.60Q74.81 7.63 74.76 7.73L74.76 7.73L74.76 7.73Q74.72 7.84 74.66 7.98L74.66 7.98L74.66 7.98Q74.59 8.12 74.52 8.27L74.52 8.27L74.52 8.27Q74.44 8.43 74.36 8.56L74.36 8.56L74.36 8.56Q74.29 8.69 74.22 8.77L74.22 8.77L74.22 8.77Q74.15 8.86 74.11 8.86L74.11 8.86L74.11 8.86Q73.99 8.85 73.81 8.78L73.81 8.78L73.81 8.78Q73.64 8.72 73.48 8.63L73.48 8.63L73.48 8.63Q73.32 8.54 73.20 8.46L73.20 8.46L73.20 8.46Q73.09 8.38 73.09 8.35L73.09 8.35L73.09 8.35Q73.09 8.20 73.17 7.97L73.17 7.97L73.17 7.97Q73.25 7.75 73.36 7.53L73.36 7.53L73.36 7.53Q73.47 7.31 73.59 7.16L73.59 7.16L73.59 7.16Q73.70 7 73.76 7L73.76 7L73.76 7Q73.88 7 74.06 7.08L74.06 7.08L74.06 7.08Q74.24 7.16 74.41 7.26L74.41 7.26L74.41 7.26Q74.57 7.36 74.69 7.46L74.69 7.46L74.69 7.46Q74.81 7.56 74.81 7.60ZM76.52 10.38L76.52 10.38L76.52 10.38Q76.44 10.60 76.36 10.82L76.36 10.82L76.36 10.82Q76.28 11.05 76.19 11.29L76.19 11.29L76.19 11.29Q76.62 10.79 76.94 10.48L76.94 10.48L76.94 10.48Q77.25 10.17 77.46 9.99L77.46 9.99L77.46 9.99Q77.68 9.82 77.81 9.75L77.81 9.75L77.81 9.75Q77.94 9.69 78.02 9.69L78.02 9.69L78.02 9.69Q78.11 9.69 78.29 9.78L78.29 9.78L78.29 9.78Q78.46 9.86 78.64 9.99L78.64 9.99L78.64 9.99Q78.83 10.12 78.96 10.26L78.96 10.26L78.96 10.26Q79.09 10.40 79.09 10.50L79.09 10.50L79.09 10.50Q79.09 10.52 79.08 10.55L79.08 10.55L79.08 10.55Q79.08 10.58 79.06 10.63L79.06 10.63L79.06 10.63Q79.01 10.80 78.92 11.03L78.92 11.03L78.92 11.03Q78.84 11.27 78.74 11.52L78.74 11.52L78.74 11.52Q78.65 11.76 78.55 12.01L78.55 12.01L78.55 12.01Q78.46 12.26 78.38 12.48L78.38 12.48L78.38 12.48Q78.31 12.70 78.26 12.87L78.26 12.87L78.26 12.87Q78.21 13.03 78.21 13.10L78.21 13.10L78.21 13.10Q78.21 13.15 78.25 13.15L78.25 13.15L78.25 13.15Q78.33 13.15 78.48 13.06L78.48 13.06L78.48 13.06Q78.63 12.97 78.82 12.82L78.82 12.82L78.82 12.82Q79.02 12.68 79.23 12.51L79.23 12.51L79.23 12.51Q79.44 12.34 79.64 12.17L79.64 12.17L79.64 12.17Q79.83 12.00 79.99 11.87L79.99 11.87L79.99 11.87Q80.14 11.73 80.23 11.66L80.23 11.66L80.23 11.66Q80.29 11.72 80.38 11.82L80.38 11.82L80.38 11.82Q80.46 11.92 80.53 12.00L80.53 12.00L80.53 12.00Q80.38 12.15 80.16 12.36L80.16 12.36L80.16 12.36Q79.93 12.58 79.67 12.80L79.67 12.80L79.67 12.80Q79.41 13.03 79.12 13.25L79.12 13.25L79.12 13.25Q78.84 13.48 78.57 13.66L78.57 13.66L78.57 13.66Q78.31 13.84 78.07 13.95L78.07 13.95L78.07 13.95Q77.84 14.05 77.68 14.05L77.68 14.05L77.68 14.05Q77.58 14.05 77.42 13.98L77.42 13.98L77.42 13.98Q77.27 13.91 77.12 13.81L77.12 13.81L77.12 13.81Q76.97 13.70 76.87 13.57L76.87 13.57L76.87 13.57Q76.77 13.44 76.77 13.32L76.77 13.32L76.77 13.32Q76.83 13.04 76.94 12.68L76.94 12.68L76.94 12.68Q77.04 12.33 77.16 11.95L77.16 11.95L77.16 11.95Q77.29 11.58 77.42 11.21L77.42 11.21L77.42 11.21Q77.55 10.85 77.68 10.54L77.68 10.54L77.66 10.55L77.66 10.55Q77.53 10.71 77.29 10.97L77.29 10.97L77.29 10.97Q77.05 11.22 76.74 11.62L76.74 11.62L76.74 11.62Q76.43 12.02 76.09 12.59L76.09 12.59L76.09 12.59Q75.75 13.15 75.42 13.92L75.42 13.92L75.42 13.92Q75.38 14.02 75.35 14.08L75.35 14.08L75.35 14.08Q75.31 14.13 75.22 14.13L75.22 14.13L75.22 14.13Q75.10 14.13 74.95 14.06L74.95 14.06L74.95 14.06Q74.81 14 74.65 13.89L74.65 13.89L74.65 13.89Q74.50 13.79 74.34 13.66L74.34 13.66L74.34 13.66Q74.19 13.53 74.07 13.40L74.07 13.40L74.07 13.40Q74.07 13.36 74.10 13.17L74.10 13.17L74.10 13.17Q74.14 12.97 74.21 12.68L74.21 12.68L74.21 12.68Q74.28 12.39 74.38 12.02L74.38 12.02L74.38 12.02Q74.48 11.65 74.61 11.24L74.61 11.24L74.61 11.24Q74.74 10.83 74.90 10.40L74.90 10.40L74.90 10.40Q75.05 9.97 75.23 9.58L75.23 9.58L75.23 9.58Q75.52 9.71 75.87 9.91L75.87 9.91L75.87 9.91Q76.22 10.11 76.52 10.38ZM81.04 12.98L81.04 12.98L81.04 12.98Q81.04 13.19 81.19 13.19L81.19 13.19L81.19 13.19Q81.35 13.19 81.61 12.94L81.61 12.94L81.61 12.94Q81.87 12.69 82.15 12.30L82.15 12.30L82.15 12.30Q82.13 12.23 82.13 12.17L82.13 12.17L82.13 12.17Q82.13 12.11 82.13 12.07L82.13 12.07L82.13 12.07Q82.13 11.93 82.16 11.74L82.16 11.74L82.16 11.74Q82.19 11.55 82.31 11.31L82.31 11.31L82.31 11.31Q82.39 11.13 82.51 10.95L82.51 10.95L82.51 10.95Q82.61 10.79 82.74 10.61L82.74 10.61L82.74 10.61Q82.88 10.43 83.04 10.27L83.04 10.27L83.08 10.23L83.08 10.23Q83.15 10.32 83.27 10.46L83.27 10.46L83.27 10.46Q83.38 10.60 83.49 10.74L83.49 10.74L83.49 10.74Q83.60 10.89 83.69 11.01L83.69 11.01L83.69 11.01Q83.77 11.14 83.79 11.18L83.79 11.18L83.79 11.18Q83.79 11.48 83.69 11.77L83.69 11.77L83.69 11.77Q83.58 12.07 83.41 12.35L83.41 12.35L83.41 12.35Q83.82 12.33 84.17 12.14L84.17 12.14L84.17 12.14Q84.52 11.96 84.90 11.55L84.90 11.55L84.90 11.55Q84.96 11.61 85.06 11.72L85.06 11.72L85.06 11.72Q85.16 11.83 85.22 11.90L85.22 11.90L85.22 11.90Q84.94 12.20 84.66 12.40L84.66 12.40L84.66 12.40Q84.38 12.60 84.11 12.71L84.11 12.71L84.11 12.71Q83.83 12.83 83.54 12.88L83.54 12.88L83.54 12.88Q83.25 12.93 82.95 12.93L82.95 12.93L82.95 12.93Q82.72 13.18 82.46 13.38L82.46 13.38L82.46 13.38Q82.19 13.59 81.91 13.74L81.91 13.74L81.91 13.74Q81.63 13.89 81.36 13.97L81.36 13.97L81.36 13.97Q81.09 14.05 80.84 14.05L80.84 14.05L80.84 14.05Q80.64 14.05 80.42 13.93L80.42 13.93L80.42 13.93Q80.20 13.81 80.02 13.63L80.02 13.63L80.02 13.63Q79.84 13.45 79.73 13.24L79.73 13.24L79.73 13.24Q79.61 13.04 79.61 12.88L79.61 12.88L79.61 12.88Q79.61 12.36 79.75 11.85L79.75 11.85L79.75 11.85Q79.89 11.33 80.19 10.89L80.19 10.89L80.19 10.89Q80.49 10.44 80.95 10.10L80.95 10.10L80.95 10.10Q81.41 9.75 82.04 9.58L82.04 9.58L82.04 9.58Q82.07 9.56 82.12 9.56L82.12 9.56L82.12 9.56Q82.17 9.55 82.20 9.55L82.20 9.55L82.20 9.55Q82.30 9.55 82.40 9.62L82.40 9.62L82.40 9.62Q82.51 9.69 82.60 9.78L82.60 9.78L82.60 9.78Q82.69 9.87 82.76 9.96L82.76 9.96L82.76 9.96Q82.82 10.04 82.82 10.07L82.82 10.07L82.82 10.07Q82.80 10.10 82.71 10.15L82.71 10.15L82.71 10.15Q82.63 10.21 82.48 10.33L82.48 10.33L82.48 10.33Q82.33 10.45 82.12 10.68L82.12 10.68L82.12 10.68Q81.92 10.91 81.67 11.29L81.67 11.29L81.67 11.29Q81.30 11.84 81.17 12.29L81.17 12.29L81.17 12.29Q81.04 12.74 81.04 12.98ZM87.90 10.85L87.90 10.85L87.90 10.85Q87.81 11.12 87.68 11.46L87.68 11.46L87.68 11.46Q87.55 11.80 87.42 12.13L87.42 12.13L87.42 12.13Q87.30 12.46 87.22 12.72L87.22 12.72L87.22 12.72Q87.13 12.99 87.13 13.10L87.13 13.10L87.13 13.10Q87.13 13.15 87.17 13.15L87.17 13.15L87.17 13.15Q87.25 13.15 87.40 13.06L87.40 13.06L87.40 13.06Q87.55 12.97 87.74 12.82L87.74 12.82L87.74 12.82Q87.94 12.68 88.15 12.51L88.15 12.51L88.15 12.51Q88.36 12.34 88.56 12.17L88.56 12.17L88.56 12.17Q88.75 12.00 88.91 11.87L88.91 11.87L88.91 11.87Q89.07 11.73 89.15 11.66L89.15 11.66L89.15 11.66Q89.21 11.72 89.29 11.82L89.29 11.82L89.29 11.82Q89.38 11.92 89.46 12.00L89.46 12.00L89.46 12.00Q89.30 12.15 89.08 12.36L89.08 12.36L89.08 12.36Q88.85 12.58 88.59 12.80L88.59 12.80L88.59 12.80Q88.33 13.03 88.04 13.25L88.04 13.25L88.04 13.25Q87.76 13.48 87.49 13.66L87.49 13.66L87.49 13.66Q87.22 13.84 86.99 13.95L86.99 13.95L86.99 13.95Q86.75 14.05 86.60 14.05L86.60 14.05L86.60 14.05Q86.50 14.05 86.34 13.98L86.34 13.98L86.34 13.98Q86.18 13.91 86.04 13.81L86.04 13.81L86.04 13.81Q85.89 13.70 85.79 13.57L85.79 13.57L85.79 13.57Q85.69 13.44 85.69 13.32L85.69 13.32L85.69 13.32Q85.79 12.86 85.89 12.52L85.89 12.52L85.89 12.52Q86.00 12.17 86.08 11.93L86.08 11.93L86.08 11.93Q86.17 11.69 86.24 11.54L86.24 11.54L86.24 11.54Q86.31 11.39 86.34 11.31L86.34 11.31L86.34 11.31Q86.26 11.28 86.19 11.24L86.19 11.24L86.19 11.24Q86.11 11.20 86.04 11.16L86.04 11.16L86.04 11.16Q85.93 11.27 85.79 11.40L85.79 11.40L85.79 11.40Q85.66 11.53 85.52 11.66L85.52 11.66L85.52 11.66Q85.39 11.79 85.25 11.92L85.25 11.92L85.25 11.92Q85.11 12.04 85.00 12.14L85.00 12.14L84.68 11.81L84.68 11.81Q84.85 11.63 85.10 11.39L85.10 11.39L85.10 11.39Q85.35 11.15 85.59 10.90L85.59 10.90L85.59 10.90Q85.42 10.80 85.29 10.71L85.29 10.71L85.29 10.71Q85.15 10.62 85.05 10.54L85.05 10.54L85.05 10.54Q84.94 10.46 84.85 10.39L84.85 10.39L84.85 10.39Q84.81 10.37 84.81 10.30L84.81 10.30L84.81 10.30Q84.81 10.23 84.86 10.09L84.86 10.09L84.86 10.09Q84.92 9.95 85.01 9.79L85.01 9.79L85.01 9.79Q85.10 9.63 85.20 9.46L85.20 9.46L85.20 9.46Q85.31 9.29 85.40 9.15L85.40 9.15L85.40 9.15Q85.50 9.02 85.57 8.93L85.57 8.93L85.57 8.93Q85.64 8.85 85.66 8.85L85.66 8.85L85.66 8.85Q85.67 8.85 85.75 8.88L85.75 8.88L85.75 8.88Q85.83 8.91 85.92 8.96L85.92 8.96L85.92 8.96Q86.01 9.00 86.08 9.06L86.08 9.06L86.08 9.06Q86.16 9.11 86.18 9.15L86.18 9.15L86.18 9.15Q86.19 9.19 86.19 9.30L86.19 9.30L86.19 9.30Q86.20 9.41 86.21 9.56L86.21 9.56L86.21 9.56Q86.47 9.70 86.75 9.87L86.75 9.87L86.75 9.87Q87.04 10.05 87.27 10.21L87.27 10.21L87.27 10.21Q87.54 10.38 87.79 10.57L87.79 10.57L87.79 10.57Q87.88 10.62 87.90 10.71L87.90 10.71L87.90 10.71Q87.92 10.79 87.90 10.85ZM89.58 14.05L89.58 14.05L89.58 14.05Q89.48 14.05 89.32 13.98L89.32 13.98L89.32 13.98Q89.16 13.91 89.02 13.81L89.02 13.81L89.02 13.81Q88.87 13.70 88.77 13.57L88.77 13.57L88.77 13.57Q88.67 13.44 88.67 13.32L88.67 13.32L88.67 13.32Q88.74 13.02 88.85 12.63L88.85 12.63L88.85 12.63Q88.97 12.24 89.10 11.83L89.10 11.83L89.10 11.83Q89.24 11.43 89.38 11.04L89.38 11.04L89.38 11.04Q89.53 10.66 89.65 10.36L89.65 10.36L89.65 10.36Q89.77 10.06 89.86 9.87L89.86 9.87L89.86 9.87Q89.95 9.69 89.97 9.69L89.97 9.69L89.97 9.69Q90.02 9.69 90.18 9.78L90.18 9.78L90.18 9.78Q90.34 9.86 90.52 9.99L90.52 9.99L90.52 9.99Q90.71 10.12 90.85 10.26L90.85 10.26L90.85 10.26Q90.99 10.40 90.99 10.50L90.99 10.50L90.99 10.50Q90.99 10.52 90.99 10.55L90.99 10.55L90.99 10.55Q90.98 10.58 90.97 10.63L90.97 10.63L90.97 10.63Q90.91 10.80 90.83 11.03L90.83 11.03L90.83 11.03Q90.74 11.27 90.64 11.52L90.64 11.52L90.64 11.52Q90.55 11.76 90.45 12.01L90.45 12.01L90.45 12.01Q90.36 12.26 90.28 12.48L90.28 12.48L90.28 12.48Q90.21 12.70 90.16 12.87L90.16 12.87L90.16 12.87Q90.11 13.03 90.11 13.10L90.11 13.10L90.11 13.10Q90.11 13.15 90.15 13.15L90.15 13.15L90.15 13.15Q90.23 13.15 90.38 13.06L90.38 13.06L90.38 13.06Q90.53 12.97 90.72 12.82L90.72 12.82L90.72 12.82Q90.92 12.68 91.13 12.51L91.13 12.51L91.13 12.51Q91.34 12.34 91.54 12.17L91.54 12.17L91.54 12.17Q91.73 12.00 91.89 11.87L91.89 11.87L91.89 11.87Q92.05 11.73 92.13 11.66L92.13 11.66L92.13 11.66Q92.19 11.72 92.27 11.82L92.27 11.82L92.27 11.82Q92.36 11.92 92.44 12.00L92.44 12.00L92.44 12.00Q92.29 12.15 92.06 12.36L92.06 12.36L92.06 12.36Q91.83 12.58 91.57 12.80L91.57 12.80L91.57 12.80Q91.31 13.03 91.02 13.25L91.02 13.25L91.02 13.25Q90.74 13.48 90.47 13.66L90.47 13.66L90.47 13.66Q90.21 13.84 89.97 13.95L89.97 13.95L89.97 13.95Q89.74 14.05 89.58 14.05ZM92.29 7.60L92.29 7.60L92.29 7.60Q92.28 7.63 92.23 7.73L92.23 7.73L92.23 7.73Q92.19 7.84 92.13 7.98L92.13 7.98L92.13 7.98Q92.07 8.12 91.99 8.27L91.99 8.27L91.99 8.27Q91.91 8.43 91.83 8.56L91.83 8.56L91.83 8.56Q91.76 8.69 91.69 8.77L91.69 8.77L91.69 8.77Q91.62 8.86 91.58 8.86L91.58 8.86L91.58 8.86Q91.46 8.85 91.28 8.78L91.28 8.78L91.28 8.78Q91.11 8.72 90.95 8.63L90.95 8.63L90.95 8.63Q90.79 8.54 90.68 8.46L90.68 8.46L90.68 8.46Q90.56 8.38 90.56 8.35L90.56 8.35L90.56 8.35Q90.56 8.20 90.64 7.97L90.64 7.97L90.64 7.97Q90.73 7.75 90.84 7.53L90.84 7.53L90.84 7.53Q90.95 7.31 91.06 7.16L91.06 7.16L91.06 7.16Q91.17 7 91.23 7L91.23 7L91.23 7Q91.36 7 91.53 7.08L91.53 7.08L91.53 7.08Q91.71 7.16 91.88 7.26L91.88 7.26L91.88 7.26Q92.05 7.36 92.17 7.46L92.17 7.46L92.17 7.46Q92.29 7.56 92.29 7.60ZM95.91 13.08L95.91 13.08L95.91 13.08Q95.91 13.12 95.95 13.12L95.95 13.12L95.95 13.12Q96.01 13.12 96.15 13.03L96.15 13.03L96.15 13.03Q96.30 12.94 96.48 12.80L96.48 12.80L96.48 12.80Q96.67 12.67 96.88 12.50L96.88 12.50L96.88 12.50Q97.08 12.33 97.28 12.16L97.28 12.16L97.28 12.16Q97.47 12.00 97.62 11.86L97.62 11.86L97.62 11.86Q97.77 11.72 97.86 11.65L97.86 11.65L97.86 11.65Q97.92 11.71 98.01 11.81L98.01 11.81L98.01 11.81Q98.10 11.92 98.18 12.00L98.18 12.00L98.18 12.00Q98.01 12.15 97.78 12.36L97.78 12.36L97.78 12.36Q97.56 12.58 97.29 12.81L97.29 12.81L97.29 12.81Q97.03 13.04 96.75 13.27L96.75 13.27L96.75 13.27Q96.47 13.50 96.20 13.68L96.20 13.68L96.20 13.68Q95.94 13.86 95.70 13.97L95.70 13.97L95.70 13.97Q95.46 14.08 95.28 14.08L95.28 14.08L95.28 14.08Q95.16 14.08 95.01 14.03L95.01 14.03L95.01 14.03Q94.86 13.99 94.74 13.90L94.74 13.90L94.74 13.90Q94.62 13.82 94.53 13.70L94.53 13.70L94.53 13.70Q94.45 13.58 94.45 13.44L94.45 13.44L94.45 13.44Q94.45 13.38 94.45 13.31L94.45 13.31L94.45 13.31Q94.45 13.23 94.46 13.10L94.46 13.10L94.46 13.10Q94.47 12.97 94.51 12.79L94.51 12.79L94.51 12.79Q94.55 12.61 94.64 12.35L94.64 12.35L94.64 12.35Q94.41 12.58 94.11 12.84L94.11 12.84L94.11 12.84Q93.80 13.10 93.47 13.34L93.47 13.34L93.47 13.34Q93.13 13.57 92.79 13.76L92.79 13.76L92.79 13.76Q92.46 13.95 92.17 14.04L92.17 14.04L92.17 14.04Q92.13 14.05 92.11 14.05L92.11 14.05L92.11 14.05Q92.09 14.05 92.07 14.05L92.07 14.05L92.07 14.05Q92.00 14.05 91.89 13.99L91.89 13.99L91.89 13.99Q91.78 13.92 91.67 13.81L91.67 13.81L91.67 13.81Q91.56 13.69 91.48 13.55L91.48 13.55L91.48 13.55Q91.40 13.41 91.40 13.26L91.40 13.26L91.40 13.26Q91.40 13.22 91.44 12.99L91.44 12.99L91.44 12.99Q91.49 12.76 91.64 12.40L91.64 12.40L91.64 12.40Q91.79 12.04 92.09 11.59L92.09 11.59L92.09 11.59Q92.39 11.14 92.91 10.67L92.91 10.67L92.91 10.67Q93.18 10.43 93.49 10.22L93.49 10.22L93.49 10.22Q93.75 10.04 94.08 9.86L94.08 9.86L94.08 9.86Q94.42 9.67 94.79 9.56L94.79 9.56L94.79 9.56Q94.80 9.56 94.81 9.56L94.81 9.56L94.81 9.56Q94.82 9.55 94.84 9.56L94.84 9.56L94.84 9.56Q94.92 9.59 95.04 9.65L95.04 9.65L95.04 9.65Q95.15 9.71 95.26 9.77L95.26 9.77L95.26 9.77Q95.38 9.84 95.46 9.90L95.46 9.90L95.46 9.90Q95.55 9.97 95.57 10.01L95.57 10.01L95.57 10.01Q95.58 10.02 95.57 10.03L95.57 10.03L95.56 10.04L95.56 10.04Q95.25 10.21 94.98 10.41L94.98 10.41L94.98 10.41Q94.71 10.61 94.49 10.79L94.49 10.79L94.49 10.79Q94.25 11.00 94.04 11.20L94.04 11.20L94.04 11.20Q93.54 11.70 93.34 12.06L93.34 12.06L93.34 12.06Q93.15 12.41 93.15 12.57L93.15 12.57L93.15 12.57Q93.15 12.69 93.25 12.69L93.25 12.69L93.25 12.69Q93.34 12.69 93.49 12.61L93.49 12.61L93.49 12.61Q93.64 12.53 93.82 12.40L93.82 12.40L93.82 12.40Q94.01 12.26 94.23 12.08L94.23 12.08L94.23 12.08Q94.45 11.90 94.69 11.70L94.69 11.70L94.69 11.70Q94.90 11.53 95.10 11.33L95.10 11.33L95.10 11.33Q95.27 11.17 95.46 10.96L95.46 10.96L95.46 10.96Q95.64 10.75 95.77 10.53L95.77 10.53L95.77 10.53Q95.77 10.52 95.78 10.51L95.78 10.51L95.78 10.51Q95.79 10.51 95.80 10.51L95.80 10.51L95.80 10.51Q95.87 10.57 95.97 10.69L95.97 10.69L95.97 10.69Q96.07 10.82 96.15 10.97L96.15 10.97L96.15 10.97Q96.23 11.12 96.29 11.26L96.29 11.26L96.29 11.26Q96.35 11.40 96.35 11.48L96.35 11.48L96.35 11.48Q96.19 11.80 96.10 12.06L96.10 12.06L96.10 12.06Q96.02 12.33 95.97 12.52L95.97 12.52L95.97 12.52Q95.93 12.72 95.92 12.86L95.92 12.86L95.92 12.86Q95.91 13.00 95.91 13.08ZM99.78 10.38L99.78 10.38L99.78 10.38Q99.70 10.60 99.61 10.82L99.61 10.82L99.61 10.82Q99.53 11.05 99.45 11.29L99.45 11.29L99.45 11.29Q99.88 10.79 100.19 10.48L100.19 10.48L100.19 10.48Q100.50 10.17 100.72 9.99L100.72 9.99L100.72 9.99Q100.93 9.82 101.07 9.75L101.07 9.75L101.07 9.75Q101.20 9.69 101.27 9.69L101.27 9.69L101.27 9.69Q101.36 9.69 101.54 9.78L101.54 9.78L101.54 9.78Q101.72 9.86 101.90 9.99L101.90 9.99L101.90 9.99Q102.08 10.12 102.21 10.26L102.21 10.26L102.21 10.26Q102.35 10.40 102.35 10.50L102.35 10.50L102.35 10.50Q102.35 10.52 102.34 10.55L102.34 10.55L102.34 10.55Q102.33 10.58 102.32 10.63L102.32 10.63L102.32 10.63Q102.27 10.80 102.18 11.03L102.18 11.03L102.18 11.03Q102.09 11.27 102.00 11.52L102.00 11.52L102.00 11.52Q101.90 11.76 101.81 12.01L101.81 12.01L101.81 12.01Q101.71 12.26 101.64 12.48L101.64 12.48L101.64 12.48Q101.56 12.70 101.51 12.87L101.51 12.87L101.51 12.87Q101.47 13.03 101.47 13.10L101.47 13.10L101.47 13.10Q101.47 13.15 101.51 13.15L101.51 13.15L101.51 13.15Q101.58 13.15 101.73 13.06L101.73 13.06L101.73 13.06Q101.88 12.97 102.08 12.82L102.08 12.82L102.08 12.82Q102.27 12.68 102.48 12.51L102.48 12.51L102.48 12.51Q102.70 12.34 102.89 12.17L102.89 12.17L102.89 12.17Q103.09 12.00 103.24 11.87L103.24 11.87L103.24 11.87Q103.40 11.73 103.48 11.66L103.48 11.66L103.48 11.66Q103.55 11.72 103.63 11.82L103.63 11.82L103.63 11.82Q103.71 11.92 103.79 12.00L103.79 12.00L103.79 12.00Q103.64 12.15 103.41 12.36L103.41 12.36L103.41 12.36Q103.19 12.58 102.93 12.80L102.93 12.80L102.93 12.80Q102.66 13.03 102.38 13.25L102.38 13.25L102.38 13.25Q102.09 13.48 101.83 13.66L101.83 13.66L101.83 13.66Q101.56 13.84 101.33 13.95L101.33 13.95L101.33 13.95Q101.10 14.05 100.94 14.05L100.94 14.05L100.94 14.05Q100.84 14.05 100.68 13.98L100.68 13.98L100.68 13.98Q100.52 13.91 100.38 13.81L100.38 13.81L100.38 13.81Q100.23 13.70 100.13 13.57L100.13 13.57L100.13 13.57Q100.02 13.44 100.02 13.32L100.02 13.32L100.02 13.32Q100.08 13.04 100.19 12.68L100.19 12.68L100.19 12.68Q100.30 12.33 100.42 11.95L100.42 11.95L100.42 11.95Q100.54 11.58 100.68 11.21L100.68 11.21L100.68 11.21Q100.81 10.85 100.93 10.54L100.93 10.54L100.92 10.55L100.92 10.55Q100.79 10.71 100.55 10.97L100.55 10.97L100.55 10.97Q100.30 11.22 100.00 11.62L100.00 11.62L100.00 11.62Q99.69 12.02 99.35 12.59L99.35 12.59L99.35 12.59Q99.00 13.15 98.68 13.92L98.68 13.92L98.68 13.92Q98.64 14.02 98.60 14.08L98.60 14.08L98.60 14.08Q98.57 14.13 98.47 14.13L98.47 14.13L98.47 14.13Q98.36 14.13 98.21 14.06L98.21 14.06L98.21 14.06Q98.06 14 97.91 13.89L97.91 13.89L97.91 13.89Q97.75 13.79 97.60 13.66L97.60 13.66L97.60 13.66Q97.45 13.53 97.32 13.40L97.32 13.40L97.32 13.40Q97.32 13.36 97.36 13.17L97.36 13.17L97.36 13.17Q97.40 12.97 97.47 12.68L97.47 12.68L97.47 12.68Q97.54 12.39 97.64 12.02L97.64 12.02L97.64 12.02Q97.74 11.65 97.87 11.24L97.87 11.24L97.87 11.24Q98 10.83 98.15 10.40L98.15 10.40L98.15 10.40Q98.31 9.97 98.49 9.58L98.49 9.58L98.49 9.58Q98.77 9.71 99.12 9.91L99.12 9.91L99.12 9.91Q99.48 10.11 99.78 10.38ZM103.91 14.05L103.91 14.05L103.91 14.05Q103.81 14.05 103.65 13.98L103.65 13.98L103.65 13.98Q103.50 13.91 103.35 13.81L103.35 13.81L103.35 13.81Q103.21 13.70 103.11 13.57L103.11 13.57L103.11 13.57Q103.00 13.44 103.00 13.32L103.00 13.32L103.00 13.32Q103.07 13.02 103.19 12.63L103.19 12.63L103.19 12.63Q103.30 12.24 103.44 11.83L103.44 11.83L103.44 11.83Q103.57 11.43 103.72 11.04L103.72 11.04L103.72 11.04Q103.87 10.66 103.98 10.36L103.98 10.36L103.98 10.36Q104.10 10.06 104.19 9.87L104.19 9.87L104.19 9.87Q104.28 9.69 104.31 9.69L104.31 9.69L104.31 9.69Q104.35 9.69 104.51 9.78L104.51 9.78L104.51 9.78Q104.68 9.86 104.86 9.99L104.86 9.99L104.86 9.99Q105.04 10.12 105.18 10.26L105.18 10.26L105.18 10.26Q105.33 10.40 105.33 10.50L105.33 10.50L105.33 10.50Q105.33 10.52 105.32 10.55L105.32 10.55L105.32 10.55Q105.31 10.58 105.30 10.63L105.30 10.63L105.30 10.63Q105.25 10.80 105.16 11.03L105.16 11.03L105.16 11.03Q105.08 11.27 104.98 11.52L104.98 11.52L104.98 11.52Q104.88 11.76 104.79 12.01L104.79 12.01L104.79 12.01Q104.69 12.26 104.62 12.48L104.62 12.48L104.62 12.48Q104.54 12.70 104.49 12.87L104.49 12.87L104.49 12.87Q104.45 13.03 104.45 13.10L104.45 13.10L104.45 13.10Q104.45 13.15 104.49 13.15L104.49 13.15L104.49 13.15Q104.56 13.15 104.71 13.06L104.71 13.06L104.71 13.06Q104.86 12.97 105.06 12.82L105.06 12.82L105.06 12.82Q105.25 12.68 105.46 12.51L105.46 12.51L105.46 12.51Q105.68 12.34 105.87 12.17L105.87 12.17L105.87 12.17Q106.07 12.00 106.22 11.87L106.22 11.87L106.22 11.87Q106.38 11.73 106.46 11.66L106.46 11.66L106.46 11.66Q106.52 11.72 106.61 11.82L106.61 11.82L106.61 11.82Q106.70 11.92 106.77 12.00L106.77 12.00L106.77 12.00Q106.62 12.15 106.39 12.36L106.39 12.36L106.39 12.36Q106.17 12.58 105.91 12.80L105.91 12.80L105.91 12.80Q105.64 13.03 105.36 13.25L105.36 13.25L105.36 13.25Q105.08 13.48 104.81 13.66L104.81 13.66L104.81 13.66Q104.54 13.84 104.31 13.95L104.31 13.95L104.31 13.95Q104.08 14.05 103.91 14.05ZM106.62 7.60L106.62 7.60L106.62 7.60Q106.61 7.63 106.57 7.73L106.57 7.73L106.57 7.73Q106.52 7.84 106.46 7.98L106.46 7.98L106.46 7.98Q106.40 8.12 106.32 8.27L106.32 8.27L106.32 8.27Q106.24 8.43 106.17 8.56L106.17 8.56L106.17 8.56Q106.09 8.69 106.03 8.77L106.03 8.77L106.03 8.77Q105.96 8.86 105.92 8.86L105.92 8.86L105.92 8.86Q105.79 8.85 105.62 8.78L105.62 8.78L105.62 8.78Q105.44 8.72 105.28 8.63L105.28 8.63L105.28 8.63Q105.12 8.54 105.01 8.46L105.01 8.46L105.01 8.46Q104.90 8.38 104.90 8.35L104.90 8.35L104.90 8.35Q104.90 8.20 104.98 7.97L104.98 7.97L104.98 7.97Q105.06 7.75 105.17 7.53L105.17 7.53L105.17 7.53Q105.28 7.31 105.39 7.16L105.39 7.16L105.39 7.16Q105.51 7 105.57 7L105.57 7L105.57 7Q105.69 7 105.87 7.08L105.87 7.08L105.87 7.08Q106.05 7.16 106.21 7.26L106.21 7.26L106.21 7.26Q106.38 7.36 106.50 7.46L106.50 7.46L106.50 7.46Q106.62 7.56 106.62 7.60Z"></path></g><!----><!----></svg>