<?xml version="1.0" encoding="UTF-8" standalone="no" ?>
<!DOCTYPE svg PUBLIC "-//W3C//DTD SVG 1.1//EN" "http://www.w3.org/Graphics/SVG/1.1/DTD/svg11.dtd">
<svg xmlns="http://www.w3.org/2000/svg" xmlns:xlink="http://www.w3.org/1999/xlink" version="1.1" width="1080" height="1080" viewBox="0 0 1080 1080" xml:space="preserve">

<defs>
</defs>
<g transform="matrix(1 0 0 1 1080 1080)" id="accd685a-ff56-4e4d-b855-514d769f2d1a"  >
<rect style="stroke: none; stroke-width: 1; stroke-dasharray: none; stroke-linecap: butt; stroke-dashoffset: 0; stroke-linejoin: miter; stroke-miterlimit: 4; fill: rgb(255,255,255); fill-rule: nonzero; opacity: 1; visibility: hidden;" vector-effect="non-scaling-stroke"  x="-540" y="-540" rx="0" ry="0" width="1080" height="1080" />
</g>
<g transform="matrix(1 0 0 1 540 540)" id="517c6596-5b1f-4aae-b97c-1ec4fedfe33c"  >
</g>
<g transform="matrix(1 0 0 1 429.79 542.71)"  >
<polygon style="stroke: none; stroke-width: 1; stroke-dasharray: none; stroke-linecap: butt; stroke-dashoffset: 0; stroke-linejoin: miter; stroke-miterlimit: 4; fill: rgb(255,255,255); fill-rule: nonzero; opacity: 1;" vector-effect="non-scaling-stroke"  points="-22.1,-22.4 -22.1,22.4 22.1,-22.4 " />
</g>
<g transform="matrix(1 0 0 1 436.19 555.51)" clip-path="url(#CLIPPATH_49)"  >
<clipPath id="CLIPPATH_49" >
	<rect transform="matrix(1 0 0 1 159.35 0.9)" id="SVGID_2_" x="-191.35" y="-41" rx="0" ry="0" width="382.7" height="82" />
</clipPath>
<path style="stroke: none; stroke-width: 1; stroke-dasharray: none; stroke-linecap: butt; stroke-dashoffset: 0; stroke-linejoin: miter; stroke-miterlimit: 4; fill: rgb(120,184,42); fill-rule: nonzero; opacity: 1;" vector-effect="non-scaling-stroke"  transform=" translate(-29, -40.1)" d="M 57.5 4.9 L 44.7 4.9 L 0.5 49.7 L 0.5 70.2 C 0.5 73 2.8 75.3 5.6 75.3 L 10.2 75.3 L 57.5 28.299999999999997 L 57.5 4.9 z" stroke-linecap="round" />
</g>
<g transform="matrix(1 0 0 1 441.04 569.51)" clip-path="url(#CLIPPATH_50)"  >
<clipPath id="CLIPPATH_50" >
	<rect transform="matrix(1 0 0 1 154.5 -13.1)" id="SVGID_4_" x="-191.35" y="-41" rx="0" ry="0" width="382.7" height="82" />
</clipPath>
<path style="stroke: none; stroke-width: 1; stroke-dasharray: none; stroke-linecap: butt; stroke-dashoffset: 0; stroke-linejoin: miter; stroke-miterlimit: 4; fill: rgb(30,93,168); fill-rule: nonzero; opacity: 1;" vector-effect="non-scaling-stroke"  transform=" translate(-33.85, -54.1)" d="M 57.5 28.3 L 10.200000000000003 75.3 L 23.400000000000002 75.39999999999999 C 26.200000000000003 75.1 28.700000000000003 77.1 29 79.89999999999999 C 29.3 77.1 31.8 75.1 34.6 75.39999999999999 L 52.400000000000006 75.3 C 55.2 75.3 57.50000000000001 73 57.50000000000001 70.2 C 57.5 70.2 57.5 28.3 57.5 28.3 z" stroke-linecap="round" />
</g>
<g transform="matrix(1 0 0 1 436.19 557.86)" clip-path="url(#CLIPPATH_51)"  >
<clipPath id="CLIPPATH_51" >
	<rect transform="matrix(1 0 0 1 159.35 -1.45)" id="SVGID_6_" x="-191.35" y="-41" rx="0" ry="0" width="382.7" height="82" />
</clipPath>
<path style="stroke: none; stroke-width: 1; stroke-dasharray: none; stroke-linecap: butt; stroke-dashoffset: 0; stroke-linejoin: miter; stroke-miterlimit: 4; fill: rgb(158,135,57); fill-rule: nonzero; opacity: 1;" vector-effect="non-scaling-stroke"  transform=" translate(-29, -42.45)" d="M 28.7 80.2 L 28.7 79.9 C 28.4 77.5 26.4 75.7 24.1 75.7 L 23.5 75.7 L 5.6 75.7 C 2.5999999999999996 75.7 0.09999999999999964 73.2 0.09999999999999964 70.2 L 0.09999999999999964 4.6 L 57.800000000000004 4.6 L 57.900000000000006 70.19999999999999 C 57.900000000000006 73.19999999999999 55.50000000000001 75.69999999999999 52.400000000000006 75.69999999999999 L 34.60000000000001 75.79999999999998 L 34 75.79999999999998 C 31.6 75.79999999999998 29.6 77.59999999999998 29.4 79.99999999999999 L 29.4 80.29999999999998 L 28.7 80.29999999999998 L 28.7 80.2 z M 24 74.9 C 26.2 74.9 28.2 76.30000000000001 29 78.30000000000001 C 29.8 76.20000000000002 31.8 74.9 34 74.9 L 34.6 74.9 L 52.400000000000006 74.80000000000001 C 55.00000000000001 74.80000000000001 57.10000000000001 72.70000000000002 57.10000000000001 70.10000000000001 L 57.10000000000001 5.3 L 0.9 5.3 L 0.9 70.1 C 0.9 72.69999999999999 3 74.8 5.6000000000000005 74.8 L 24 74.9 z" stroke-linecap="round" />
</g>
<g transform="matrix(1 0 0 1 437.17 480.92)" style=""  >
		<text xml:space="preserve" font-family="'Times-Roman'" font-size="18" font-style="normal" font-weight="normal" style="stroke: none; stroke-width: 1; stroke-dasharray: none; stroke-linecap: butt; stroke-dashoffset: 0; stroke-linejoin: miter; stroke-miterlimit: 4; fill: rgb(30,93,168); fill-rule: nonzero; opacity: 1; white-space: pre;" ><tspan x="-107.24" y="5.65" >BIBLIOTECA REGIONALE</tspan></text>
</g>
<g transform="matrix(1 0 0 1 604.66 532.28)" style=""  >
		<text xml:space="preserve" font-family="'Times-Roman'" font-size="20" font-style="normal" font-weight="normal" style="stroke: none; stroke-width: 1; stroke-dasharray: none; stroke-linecap: butt; stroke-dashoffset: 0; stroke-linejoin: miter; stroke-miterlimit: 4; fill: rgb(30,93,168); fill-rule: nonzero; opacity: 1; white-space: pre;" ></text>
</g>
<g transform="matrix(1 0 0 1 437.96 504.21)" style=""  >
		<text xml:space="preserve" font-family="'Times-Roman'" font-size="18" font-style="normal" font-weight="normal" style="stroke: none; stroke-width: 1; stroke-dasharray: none; stroke-linecap: butt; stroke-dashoffset: 0; stroke-linejoin: miter; stroke-miterlimit: 4; fill: rgb(30,93,168); fill-rule: nonzero; opacity: 1; white-space: pre;" ><tspan x="-76.95" y="5.65" >&quot;Salvatore Tommasi&quot;</tspan></text>
</g>
</svg>